<svg width="603" height="483" viewBox="0 0 603 483" fill="none" xmlns="http://www.w3.org/2000/svg">
<rect x="83.6025" y="115" width="274.996" height="197.82" rx="20" transform="rotate(25 83.6025 115)" fill="white"/>
<mask id="mask0_16_1320" style="mask-type:alpha" maskUnits="userSpaceOnUse" x="6" y="121" width="321" height="283">
<rect x="83.6025" y="115" width="274.996" height="197.82" rx="20" transform="rotate(25 83.6025 115)" fill="white"/>
</mask>
<g mask="url(#mask0_16_1320)">
<path opacity="0.3" d="M39.1011 274.906L24.7832 305.611C22.3582 310.811 24.6081 316.993 29.8085 319.418C35.0089 321.843 41.1905 319.593 43.6155 314.393L57.9335 283.688C60.3585 278.487 58.1085 272.306 52.9081 269.881C47.7077 267.456 41.5261 269.706 39.1011 274.906Z" fill="#7951F9"/>
<path opacity="0.3" d="M72.5926 281.751L54.9147 319.662C52.4897 324.862 54.7396 331.044 59.94 333.469C65.1404 335.894 71.322 333.644 73.747 328.443L91.4249 290.533C93.8499 285.332 91.6 279.151 86.3996 276.726C81.1992 274.301 75.0175 276.551 72.5926 281.751Z" fill="#7951F9"/>
<path opacity="0.3" d="M91.3845 320.12L85.0465 333.712C82.6215 338.912 84.8714 345.094 90.0718 347.519C95.2722 349.944 101.454 347.694 103.879 342.494L110.217 328.901C112.642 323.701 110.392 317.519 105.192 315.094C99.9912 312.669 93.8095 314.919 91.3845 320.12Z" fill="#7951F9"/>
<path opacity="0.3" d="M160.156 251.308L115.179 347.763C112.754 352.963 115.004 359.145 120.204 361.57C125.404 363.995 131.586 361.745 134.011 356.544L178.988 260.09C181.413 254.89 179.163 248.708 173.963 246.283C168.763 243.858 162.581 246.108 160.156 251.308Z" fill="#7951F9"/>
<path opacity="0.3" d="M171.347 305.423L145.145 361.615C142.694 366.87 144.968 373.118 150.224 375.568C155.479 378.019 161.727 375.745 164.177 370.49L190.38 314.298C192.83 309.043 190.557 302.795 185.301 300.345C180.045 297.894 173.798 300.168 171.347 305.423Z" fill="#7951F9"/>
<path opacity="0.3" d="M188.92 346.961L175.442 375.864C173.017 381.065 175.267 387.246 180.467 389.671C185.667 392.096 191.849 389.846 194.274 384.646L207.752 355.742C210.177 350.542 207.927 344.36 202.727 341.935C197.526 339.51 191.345 341.76 188.92 346.961Z" fill="#7951F9"/>
<path d="M265.879 261.234L205.867 389.93C203.417 395.186 205.69 401.433 210.946 403.884C216.202 406.335 222.449 404.061 224.9 398.805L284.912 270.109C287.362 264.854 285.089 258.607 279.833 256.156C274.577 253.705 268.33 255.979 265.879 261.234Z" fill="#7951F9"/>
</g>
<path d="M91.1968 157.16C91.7772 155.915 92.5735 154.933 93.5858 154.213C94.6159 153.487 95.741 153.078 96.9613 152.985C98.1993 152.885 99.4226 153.117 100.631 153.681C102.045 154.34 103.114 155.28 103.84 156.501C104.565 157.722 104.84 159.072 104.666 160.55L101.748 159.189C101.74 158.449 101.54 157.805 101.149 157.255C100.77 156.71 100.237 156.277 99.5478 155.956C98.8107 155.613 98.0704 155.481 97.327 155.561C96.6012 155.634 95.9287 155.909 95.3094 156.385C94.7022 156.867 94.2014 157.531 93.807 158.377C93.4182 159.211 93.2315 160.021 93.2471 160.808C93.2803 161.589 93.4992 162.286 93.9038 162.902C94.326 163.511 94.9057 163.987 95.6428 164.331C96.3316 164.652 97.0063 164.782 97.6668 164.723C98.345 164.656 98.97 164.389 99.5417 163.92L102.46 165.281C101.434 166.376 100.22 167.039 98.819 167.268C97.4352 167.491 96.0303 167.27 94.6044 166.605C93.396 166.041 92.4292 165.259 91.7039 164.259C90.9964 163.253 90.5869 162.127 90.4754 160.884C90.3759 159.646 90.6164 158.404 91.1968 157.16ZM116.931 164.658L112.248 174.7L109.692 173.508L110.284 172.239C109.755 172.522 109.165 172.666 108.515 172.672C107.883 172.672 107.259 172.528 106.642 172.24C105.857 171.874 105.238 171.387 104.786 170.779C104.339 170.159 104.09 169.447 104.039 168.643C104.005 167.832 104.196 166.98 104.613 166.086L107.36 160.195L109.898 161.378L107.32 166.907C106.948 167.704 106.86 168.414 107.056 169.035C107.257 169.643 107.702 170.108 108.391 170.43C109.092 170.756 109.741 170.801 110.337 170.564C110.938 170.315 111.425 169.792 111.797 168.994L114.375 163.466L116.931 164.658ZM121.245 168.568C121.819 168.188 122.437 167.968 123.097 167.908C123.77 167.854 124.444 167.985 125.121 168.301L123.879 170.965L123.208 170.652C122.41 170.28 121.719 170.186 121.133 170.369C120.56 170.558 120.056 171.117 119.622 172.048L117.289 177.051L114.752 175.867L119.434 165.825L121.972 167.009L121.245 168.568ZM128.574 171.985C129.148 171.605 129.765 171.386 130.426 171.326C131.098 171.272 131.773 171.402 132.449 171.718L131.207 174.382L130.536 174.07C129.739 173.698 129.047 173.603 128.462 173.786C127.888 173.975 127.385 174.535 126.951 175.465L124.618 180.468L122.08 179.284L126.763 169.243L129.3 170.426L128.574 171.985ZM141.186 181.816C141.017 182.179 140.841 182.494 140.657 182.761L133.316 179.338C133.039 180.091 133.027 180.778 133.283 181.397C133.538 182.016 133.993 182.478 134.645 182.782C135.588 183.222 136.447 183.13 137.223 182.506L139.96 183.782C139.22 184.614 138.292 185.152 137.177 185.397C136.068 185.631 134.915 185.468 133.719 184.91C132.752 184.46 131.981 183.842 131.405 183.059C130.846 182.269 130.533 181.38 130.464 180.391C130.407 179.409 130.618 178.404 131.097 177.377C131.582 176.337 132.219 175.524 133.008 174.935C133.797 174.347 134.671 174.019 135.63 173.951C136.588 173.883 137.563 174.08 138.554 174.542C139.508 174.987 140.264 175.59 140.822 176.35C141.392 177.116 141.705 177.975 141.76 178.928C141.834 179.875 141.643 180.837 141.186 181.816ZM138.896 179.866C139.188 179.207 139.195 178.578 138.916 177.977C138.643 177.364 138.174 176.903 137.509 176.593C136.881 176.3 136.259 176.245 135.644 176.429C135.046 176.607 134.541 177.011 134.129 177.643L138.896 179.866ZM150.911 180.326C152.107 180.884 152.896 181.716 153.278 182.821C153.666 183.914 153.544 185.137 152.913 186.49L150.166 192.381L147.629 191.198L150.215 185.651C150.587 184.854 150.672 184.151 150.471 183.542C150.275 182.921 149.832 182.45 149.144 182.128C148.443 181.802 147.785 181.76 147.172 182.003C146.576 182.24 146.092 182.758 145.72 183.555L143.133 189.102L140.596 187.918L145.278 177.877L147.816 179.06L147.233 180.311C147.774 180.033 148.361 179.895 148.993 179.896C149.643 179.89 150.282 180.033 150.911 180.326ZM154.268 188.181C154.753 187.142 155.387 186.334 156.171 185.758C156.96 185.17 157.828 184.839 158.774 184.766C159.726 184.68 160.686 184.862 161.652 185.313C162.897 185.894 163.778 186.687 164.294 187.693C164.829 188.692 164.973 189.819 164.727 191.072L161.989 189.796C162.047 189.293 161.957 188.839 161.72 188.434C161.5 188.023 161.136 187.698 160.628 187.462C159.903 187.124 159.205 187.122 158.534 187.456C157.869 187.779 157.311 188.423 156.86 189.39C156.415 190.345 156.28 191.186 156.455 191.915C156.636 192.632 157.089 193.16 157.814 193.498C158.841 193.977 159.726 193.83 160.468 193.058L163.205 194.335C162.42 195.293 161.467 195.9 160.347 196.158C159.227 196.415 158.05 196.256 156.817 195.681C155.851 195.231 155.091 194.619 154.539 193.847C153.993 193.062 153.689 192.185 153.626 191.214C153.57 190.232 153.784 189.221 154.268 188.181ZM177.773 193.029L164.659 204.921L161.958 203.661L166.466 199.673L167.006 188.008L169.852 189.335L169.173 197.559L175.072 191.77L177.773 193.029Z" fill="#232D42"/>
<g filter="url(#filter0_d_16_1320)">
<rect x="319.603" y="34" width="274.996" height="197.82" rx="20" transform="rotate(25 319.603 34)" fill="white"/>
</g>
<path opacity="0.5" d="M458.202 234.379L455.256 240.696L454.432 240.311L457.377 233.994L458.202 234.379ZM460.03 237.703L458.664 240.63C458.552 240.872 458.523 241.068 458.578 241.218C458.635 241.363 458.791 241.494 459.045 241.613L459.652 241.896L459.327 242.594L458.583 242.247C458.124 242.033 457.829 241.767 457.698 241.448C457.567 241.13 457.614 240.729 457.84 240.245L459.205 237.318L458.561 237.018L458.878 236.338L459.522 236.638L460.105 235.388L460.93 235.772L460.347 237.023L461.643 237.627L461.326 238.307L460.03 237.703ZM466.467 242.668C466.393 242.825 466.307 242.987 466.207 243.154L462.237 241.303C462.039 241.806 462.027 242.268 462.199 242.686C462.38 243.102 462.689 243.411 463.124 243.614C463.48 243.78 463.814 243.837 464.126 243.784C464.447 243.727 464.72 243.582 464.946 243.35L465.834 243.764C465.479 244.179 465.031 244.445 464.492 244.561C463.955 244.671 463.39 244.588 462.798 244.312C462.327 244.092 461.953 243.789 461.677 243.403C461.407 243.02 461.257 242.585 461.226 242.1C461.197 241.609 461.303 241.106 461.542 240.593C461.782 240.079 462.095 239.677 462.48 239.386C462.866 239.095 463.291 238.933 463.755 238.899C464.229 238.862 464.707 238.957 465.19 239.182C465.662 239.402 466.031 239.699 466.297 240.074C466.564 240.448 466.71 240.862 466.734 241.314C466.767 241.764 466.678 242.215 466.467 242.668ZM465.695 242.099C465.842 241.785 465.897 241.483 465.863 241.195C465.831 240.901 465.721 240.64 465.533 240.412C465.353 240.181 465.119 239.998 464.829 239.863C464.412 239.669 463.993 239.635 463.573 239.763C463.159 239.894 462.821 240.185 462.559 240.636L465.695 242.099ZM475.002 243.746C475.389 243.927 475.695 244.169 475.921 244.473C476.15 244.771 476.277 245.121 476.303 245.523C476.329 245.925 476.235 246.355 476.021 246.814L474.656 249.742L473.84 249.361L475.15 246.552C475.381 246.056 475.433 245.621 475.307 245.246C475.189 244.867 474.922 244.581 474.505 244.386C474.076 244.186 473.67 244.166 473.286 244.326C472.906 244.479 472.594 244.816 472.352 245.335L471.076 248.072L470.26 247.692L471.57 244.883C471.801 244.387 471.853 243.952 471.727 243.576C471.609 243.198 471.342 242.911 470.925 242.717C470.496 242.517 470.09 242.497 469.706 242.656C469.326 242.81 469.014 243.146 468.772 243.666L467.496 246.403L466.671 246.018L468.987 241.052L469.812 241.437L469.478 242.152C469.762 241.969 470.073 241.871 470.409 241.859C470.752 241.849 471.09 241.922 471.422 242.077C471.839 242.271 472.164 242.537 472.397 242.874C472.63 243.21 472.74 243.596 472.728 244.032C473.03 243.747 473.387 243.582 473.797 243.538C474.208 243.494 474.609 243.563 475.002 243.746ZM481.501 245.872L481.852 245.12L483.556 245.915L480.5 252.467L479.666 252.078L482.371 246.278L481.501 245.872Z" fill="#232D42"/>
<circle cx="437.721" cy="227.002" r="4" transform="rotate(25 437.721 227.002)" fill="#7951F9"/>
<path opacity="0.5" d="M438.762 276.069L435.816 282.386L434.991 282.001L437.937 275.684L438.762 276.069ZM440.589 279.392L439.224 282.32C439.111 282.562 439.082 282.758 439.137 282.908C439.195 283.053 439.351 283.184 439.604 283.303L440.212 283.586L439.886 284.284L439.143 283.937C438.684 283.723 438.389 283.457 438.258 283.138C438.127 282.82 438.174 282.419 438.399 281.935L439.764 279.008L439.121 278.708L439.438 278.028L440.081 278.328L440.665 277.077L441.489 277.462L440.906 278.713L442.202 279.317L441.885 279.997L440.589 279.392ZM447.026 284.358C446.953 284.515 446.866 284.677 446.767 284.844L442.797 282.993C442.599 283.496 442.586 283.958 442.759 284.376C442.94 284.792 443.248 285.101 443.683 285.304C444.04 285.47 444.374 285.527 444.686 285.473C445.006 285.417 445.28 285.272 445.506 285.039L446.394 285.454C446.039 285.869 445.591 286.135 445.051 286.251C444.514 286.361 443.95 286.278 443.358 286.002C442.887 285.782 442.513 285.479 442.237 285.093C441.967 284.71 441.816 284.275 441.785 283.79C441.757 283.299 441.863 282.796 442.102 282.283C442.341 281.769 442.654 281.367 443.04 281.076C443.426 280.785 443.851 280.623 444.315 280.589C444.788 280.552 445.267 280.647 445.75 280.872C446.221 281.092 446.59 281.389 446.857 281.763C447.124 282.138 447.269 282.552 447.293 283.004C447.327 283.454 447.238 283.905 447.026 284.358ZM446.255 283.789C446.401 283.475 446.457 283.173 446.422 282.885C446.39 282.59 446.28 282.33 446.092 282.102C445.913 281.871 445.678 281.688 445.388 281.553C444.971 281.359 444.553 281.325 444.133 281.453C443.719 281.584 443.381 281.875 443.119 282.326L446.255 283.789ZM455.561 285.436C455.948 285.617 456.254 285.859 456.481 286.163C456.709 286.461 456.837 286.811 456.863 287.213C456.889 287.615 456.794 288.045 456.58 288.504L455.215 291.432L454.4 291.051L455.71 288.242C455.941 287.746 455.993 287.311 455.866 286.936C455.749 286.557 455.481 286.271 455.064 286.076C454.635 285.876 454.229 285.856 453.846 286.016C453.465 286.169 453.154 286.506 452.912 287.025L451.635 289.762L450.82 289.382L452.13 286.572C452.361 286.077 452.413 285.642 452.286 285.266C452.169 284.888 451.901 284.601 451.485 284.407C451.056 284.207 450.649 284.187 450.266 284.346C449.885 284.5 449.574 284.836 449.332 285.356L448.055 288.093L447.231 287.708L449.547 282.742L450.371 283.126L450.037 283.842C450.322 283.659 450.632 283.561 450.969 283.549C451.312 283.539 451.649 283.612 451.982 283.767C452.398 283.961 452.723 284.227 452.956 284.564C453.189 284.9 453.3 285.286 453.288 285.722C453.59 285.436 453.946 285.272 454.357 285.228C454.767 285.184 455.169 285.253 455.561 285.436ZM461.842 288.552C462.143 288.016 462.561 287.681 463.094 287.547C463.627 287.414 464.202 287.49 464.818 287.778C465.229 287.969 465.547 288.21 465.773 288.499C466.007 288.785 466.141 289.09 466.173 289.414C466.212 289.741 466.157 290.064 466.008 290.385C465.833 290.759 465.573 291.032 465.229 291.202C464.891 291.376 464.531 291.421 464.15 291.339L464.129 291.384C464.477 291.664 464.699 292 464.796 292.391C464.894 292.782 464.835 293.207 464.621 293.666C464.46 294.01 464.237 294.285 463.95 294.49C463.666 294.688 463.33 294.793 462.943 294.804C462.556 294.814 462.141 294.717 461.7 294.511C461.06 294.212 460.612 293.801 460.356 293.277C460.103 292.747 460.096 292.163 460.335 291.524L461.132 291.896C461.005 292.278 461.015 292.643 461.162 292.991C461.309 293.339 461.594 293.612 462.017 293.809C462.44 294.006 462.81 294.047 463.129 293.931C463.457 293.811 463.703 293.576 463.866 293.226C464.078 292.773 464.079 292.376 463.87 292.036C463.66 291.696 463.251 291.383 462.64 291.099L462.432 291.001L462.753 290.313L462.971 290.414C463.529 290.667 463.992 290.772 464.357 290.73C464.726 290.681 464.997 290.469 465.172 290.094C465.321 289.774 465.335 289.468 465.214 289.176C465.099 288.887 464.848 288.652 464.461 288.472C464.087 288.297 463.739 288.253 463.42 288.339C463.1 288.426 462.843 288.622 462.648 288.929L461.842 288.552Z" fill="#232D42"/>
<circle cx="418.28" cy="268.692" r="4" transform="rotate(25 418.28 268.692)" fill="#25CADF"/>
<path opacity="0.5" d="M448.482 255.224L445.536 261.541L444.711 261.156L447.657 254.839L448.482 255.224ZM450.309 258.548L448.944 261.475C448.832 261.717 448.803 261.913 448.857 262.064C448.915 262.208 449.071 262.34 449.325 262.458L449.932 262.741L449.606 263.439L448.863 263.092C448.404 262.878 448.109 262.612 447.978 262.293C447.847 261.975 447.894 261.574 448.12 261.091L449.485 258.163L448.841 257.863L449.158 257.183L449.802 257.483L450.385 256.233L451.21 256.617L450.626 257.868L451.922 258.472L451.605 259.152L450.309 258.548ZM456.746 263.513C456.673 263.671 456.587 263.832 456.487 263.999L452.517 262.148C452.319 262.652 452.306 263.113 452.479 263.532C452.66 263.947 452.968 264.256 453.403 264.459C453.76 264.625 454.094 264.682 454.406 264.629C454.726 264.572 455 264.428 455.226 264.195L456.114 264.609C455.759 265.024 455.311 265.29 454.772 265.406C454.235 265.516 453.67 265.433 453.078 265.157C452.607 264.937 452.233 264.634 451.957 264.248C451.687 263.865 451.537 263.431 451.505 262.945C451.477 262.454 451.583 261.951 451.822 261.438C452.062 260.924 452.374 260.522 452.76 260.231C453.146 259.94 453.571 259.778 454.035 259.744C454.508 259.708 454.987 259.802 455.47 260.027C455.941 260.247 456.31 260.544 456.577 260.919C456.844 261.293 456.989 261.707 457.014 262.16C457.047 262.609 456.958 263.06 456.746 263.513ZM455.975 262.944C456.121 262.63 456.177 262.329 456.142 262.04C456.111 261.746 456.001 261.485 455.812 261.257C455.633 261.027 455.398 260.844 455.108 260.708C454.692 260.514 454.273 260.481 453.853 260.608C453.439 260.739 453.101 261.03 452.839 261.482L455.975 262.944ZM465.282 264.592C465.668 264.772 465.975 265.014 466.201 265.318C466.43 265.616 466.557 265.966 466.583 266.368C466.609 266.77 466.515 267.2 466.3 267.66L464.935 270.587L464.12 270.207L465.43 267.397C465.661 266.902 465.713 266.466 465.587 266.091C465.469 265.712 465.202 265.426 464.785 265.231C464.356 265.031 463.949 265.011 463.566 265.171C463.186 265.324 462.874 265.661 462.632 266.181L461.356 268.918L460.54 268.537L461.85 265.728C462.081 265.232 462.133 264.797 462.007 264.422C461.889 264.043 461.622 263.757 461.205 263.562C460.776 263.362 460.37 263.342 459.986 263.501C459.606 263.655 459.294 263.992 459.052 264.511L457.776 267.248L456.951 266.864L459.267 261.897L460.092 262.282L459.758 262.998C460.042 262.814 460.352 262.716 460.689 262.704C461.032 262.694 461.369 262.767 461.702 262.922C462.119 263.117 462.444 263.382 462.676 263.719C462.909 264.055 463.02 264.442 463.008 264.877C463.31 264.592 463.667 264.427 464.077 264.383C464.487 264.339 464.889 264.408 465.282 264.592ZM469.502 271.911C470.557 271.653 471.394 271.429 472.012 271.239C472.633 271.043 473.191 270.799 473.687 270.508C474.192 270.214 474.542 269.859 474.736 269.442C474.92 269.049 474.967 268.696 474.877 268.382C474.797 268.065 474.546 267.808 474.123 267.611C473.712 267.419 473.331 267.4 472.98 267.553C472.638 267.702 472.358 267.987 472.14 268.408L471.343 268.036C471.682 267.37 472.132 266.943 472.69 266.755C473.249 266.567 473.833 266.615 474.443 266.9C475.066 267.19 475.478 267.592 475.68 268.105C475.888 268.621 475.851 269.182 475.569 269.786C475.335 270.287 474.956 270.706 474.431 271.043C473.915 271.376 473.383 271.635 472.833 271.82C472.286 271.999 471.605 272.189 470.791 272.39L473.908 273.844L473.587 274.533L469.228 272.5L469.502 271.911Z" fill="#232D42"/>
<circle cx="428.001" cy="247.847" r="4" transform="rotate(25 428.001 247.847)" fill="#EC9C27"/>
<circle cx="364.769" cy="164.296" r="61" transform="rotate(25 364.769 164.296)" fill="#F9F7FF"/>
<path d="M425.491 158.486C426.686 170.97 424.004 183.519 417.809 194.424C411.615 205.328 402.211 214.059 390.876 219.427C379.542 224.794 366.829 226.538 354.468 224.42C342.107 222.302 330.699 216.426 321.798 207.591L364.769 164.296L425.491 158.486Z" fill="#7951F9"/>
<path d="M343.906 106.975C352.755 103.754 362.229 102.626 371.587 103.678C380.945 104.731 389.933 107.936 397.845 113.042C405.758 118.148 412.38 125.017 417.195 133.111C422.009 141.204 424.884 150.302 425.595 159.692L364.769 164.296L343.906 106.975Z" fill="#FD4C5C"/>
<path d="M322.203 207.99C316.088 202.032 311.291 194.857 308.123 186.929L364.769 164.296L322.203 207.99Z" fill="#25CADF"/>
<g filter="url(#filter1_dd_16_1320)">
<path d="M368.685 127.503C369.619 125.501 371.999 124.635 374.001 125.568L396.658 136.134C398.661 137.067 399.527 139.447 398.593 141.45L394.198 150.875C393.264 152.877 390.884 153.744 388.882 152.81L381.826 149.52L375.609 151.696L373.281 145.535L366.225 142.244C364.222 141.311 363.356 138.931 364.29 136.929L368.685 127.503Z" fill="white"/>
</g>
<path d="M377.206 138.119C377.065 138.421 376.857 138.67 376.582 138.865C376.313 139.064 375.991 139.186 375.617 139.232C375.248 139.281 374.859 139.232 374.45 139.085L374.107 139.819L373.518 139.544L373.861 138.81C373.318 138.491 372.942 138.098 372.732 137.633C372.523 137.167 372.533 136.687 372.765 136.191L373.87 136.707C373.778 136.951 373.762 137.183 373.822 137.402C373.885 137.615 374.03 137.8 374.258 137.958L375.188 135.964C374.831 135.673 374.549 135.416 374.343 135.195C374.14 134.968 374.002 134.698 373.928 134.384C373.859 134.072 373.918 133.717 374.104 133.318C374.338 132.817 374.706 132.485 375.209 132.322C375.714 132.153 376.264 132.174 376.857 132.384L377.199 131.65L377.788 131.925L377.446 132.659C377.955 132.955 378.302 133.323 378.487 133.762C378.681 134.198 378.682 134.677 378.491 135.198L377.385 134.683C377.454 134.487 377.459 134.287 377.4 134.083C377.343 133.873 377.222 133.691 377.036 133.538L376.123 135.496C376.483 135.781 376.764 136.037 376.967 136.264C377.173 136.486 377.31 136.752 377.378 137.063C377.449 137.368 377.392 137.72 377.206 138.119ZM375.181 133.754C375.065 134.002 375.048 134.229 375.128 134.436C375.214 134.645 375.374 134.856 375.606 135.067L376.46 133.236C376.186 133.145 375.934 133.142 375.703 133.226C375.479 133.312 375.305 133.488 375.181 133.754ZM374.847 138.233C375.132 138.314 375.39 138.306 375.62 138.207C375.853 138.102 376.026 137.929 376.138 137.687C376.251 137.446 376.263 137.223 376.174 137.02C376.094 136.813 375.937 136.604 375.705 136.393L374.847 138.233ZM379.466 139.647C380.28 139.416 380.927 139.218 381.409 139.053C381.9 138.884 382.338 138.677 382.725 138.431C383.112 138.185 383.387 137.886 383.551 137.536C383.72 137.173 383.765 136.849 383.685 136.561C383.612 136.277 383.391 136.049 383.022 135.877C382.666 135.711 382.334 135.696 382.028 135.833C381.73 135.966 381.487 136.22 381.297 136.595L380.3 136.13C380.64 135.45 381.09 135.02 381.652 134.841C382.223 134.658 382.813 134.709 383.423 134.994C384.082 135.301 384.511 135.722 384.71 136.256C384.916 136.793 384.878 137.364 384.596 137.968C384.393 138.403 384.086 138.771 383.673 139.072C383.27 139.369 382.839 139.606 382.382 139.782C381.933 139.956 381.376 140.141 380.71 140.338L380.134 140.51L383.007 141.85L382.605 142.711L378.2 140.657L378.551 139.905L379.466 139.647ZM390.759 139.661L387.723 138.246L386.882 140.049C387.088 139.939 387.341 139.885 387.643 139.885C387.95 139.889 388.246 139.957 388.53 140.089C389.037 140.326 389.397 140.626 389.61 140.99C389.829 141.357 389.927 141.738 389.905 142.132C389.889 142.529 389.795 142.912 389.623 143.281C389.415 143.728 389.141 144.086 388.803 144.354C388.473 144.62 388.089 144.772 387.652 144.811C387.221 144.852 386.757 144.758 386.262 144.527C385.603 144.22 385.151 143.81 384.904 143.298C384.657 142.785 384.62 142.242 384.792 141.668L385.798 142.137C385.732 142.452 385.775 142.747 385.926 143.024C386.079 143.294 386.328 143.509 386.672 143.67C387.101 143.87 387.482 143.889 387.815 143.728C388.154 143.57 388.423 143.276 388.623 142.847C388.826 142.412 388.872 142.029 388.762 141.698C388.654 141.361 388.389 141.094 387.966 140.897C387.67 140.758 387.384 140.717 387.108 140.772C386.841 140.824 386.603 140.956 386.394 141.168L385.415 140.711L387.194 136.896L391.182 138.755L390.759 139.661Z" fill="#232D42"/>
<path d="M481.483 138.218L477.831 146.048C477.431 146.906 477.348 147.669 477.581 148.337C477.819 148.992 478.343 149.509 479.153 149.887C479.975 150.27 480.713 150.342 481.369 150.103C482.03 149.853 482.561 149.298 482.961 148.44L486.612 140.61L489.168 141.802L485.525 149.614C485.024 150.69 484.363 151.492 483.542 152.021C482.739 152.544 481.857 152.81 480.897 152.818C479.949 152.832 478.998 152.617 478.043 152.172C477.101 151.732 476.33 151.145 475.731 150.41C475.145 149.68 474.8 148.842 474.696 147.897C474.599 146.939 474.8 145.922 475.302 144.847L478.945 137.035L481.483 138.218ZM489.487 157.552C488.665 157.169 487.996 156.68 487.478 156.086C486.967 155.479 486.636 154.832 486.486 154.145C486.348 153.462 486.404 152.805 486.656 152.171L489.211 153.363C489.079 153.772 489.117 154.18 489.325 154.586C489.545 154.997 489.903 155.319 490.398 155.55C490.882 155.775 491.302 155.853 491.658 155.784C492.026 155.72 492.28 155.537 492.421 155.235C492.573 154.909 492.517 154.588 492.252 154.273C492.004 153.952 491.563 153.526 490.928 152.994C490.263 152.464 489.735 151.989 489.341 151.57C488.96 151.157 488.687 150.669 488.523 150.107C488.37 149.551 488.452 148.934 488.768 148.257C489.027 147.701 489.421 147.267 489.949 146.954C490.489 146.647 491.118 146.499 491.834 146.509C492.562 146.525 493.331 146.722 494.14 147.099C495.337 147.657 496.15 148.405 496.582 149.341C497.018 150.266 497.037 151.252 496.636 152.301L494.207 151.169C494.356 150.753 494.334 150.36 494.139 149.99C493.961 149.613 493.625 149.309 493.13 149.078C492.67 148.863 492.274 148.782 491.942 148.833C491.621 148.889 491.391 149.068 491.25 149.371C491.092 149.709 491.14 150.048 491.394 150.387C491.653 150.714 492.097 151.134 492.726 151.648C493.366 152.167 493.877 152.633 494.258 153.046C494.639 153.459 494.903 153.95 495.05 154.519C495.214 155.081 495.148 155.697 494.85 156.368C494.579 156.948 494.174 157.391 493.634 157.698C493.105 158.011 492.477 158.159 491.749 158.143C491.038 158.121 490.284 157.924 489.487 157.552ZM507.375 159.317C507.206 159.68 507.03 159.995 506.846 160.262L499.505 156.839C499.228 157.592 499.216 158.279 499.472 158.898C499.727 159.517 500.182 159.979 500.834 160.284C501.777 160.723 502.636 160.631 503.412 160.007L506.149 161.284C505.409 162.115 504.481 162.653 503.366 162.899C502.257 163.132 501.104 162.969 499.908 162.412C498.941 161.961 498.17 161.344 497.594 160.56C497.035 159.77 496.722 158.881 496.653 157.892C496.596 156.91 496.807 155.905 497.286 154.878C497.771 153.838 498.408 153.025 499.197 152.436C499.986 151.848 500.86 151.52 501.819 151.452C502.777 151.384 503.752 151.581 504.743 152.043C505.697 152.489 506.453 153.091 507.011 153.851C507.581 154.617 507.894 155.477 507.949 156.43C508.023 157.376 507.832 158.339 507.375 159.317ZM505.085 157.367C505.377 156.709 505.384 156.079 505.105 155.478C504.832 154.865 504.363 154.404 503.698 154.094C503.07 153.801 502.448 153.746 501.833 153.93C501.235 154.108 500.73 154.512 500.318 155.144L505.085 157.367ZM513.278 158.12C513.852 157.74 514.47 157.521 515.13 157.461C515.803 157.407 516.477 157.537 517.154 157.853L515.912 160.518L515.241 160.205C514.443 159.833 513.752 159.738 513.166 159.921C512.593 160.11 512.089 160.67 511.655 161.6L509.322 166.603L506.785 165.42L511.467 155.378L514.005 156.561L513.278 158.12ZM517.88 170.792C517.058 170.409 516.389 169.92 515.871 169.326C515.36 168.719 515.029 168.072 514.879 167.384C514.741 166.702 514.797 166.044 515.048 165.411L517.604 166.603C517.472 167.012 517.51 167.42 517.718 167.826C517.938 168.237 518.296 168.559 518.791 168.79C519.275 169.015 519.694 169.093 520.05 169.024C520.419 168.96 520.673 168.777 520.814 168.475C520.966 168.149 520.91 167.828 520.644 167.513C520.397 167.192 519.956 166.765 519.321 166.234C518.656 165.703 518.127 165.229 517.734 164.81C517.353 164.397 517.08 163.909 516.916 163.347C516.763 162.79 516.845 162.174 517.161 161.497C517.42 160.941 517.814 160.507 518.342 160.194C518.882 159.887 519.51 159.739 520.227 159.749C520.955 159.765 521.724 159.962 522.533 160.339C523.73 160.897 524.543 161.644 524.975 162.581C525.411 163.506 525.429 164.492 525.029 165.541L522.6 164.409C522.749 163.993 522.727 163.6 522.532 163.229C522.354 162.852 522.018 162.548 521.523 162.317C521.063 162.103 520.667 162.022 520.335 162.073C520.014 162.129 519.783 162.308 519.643 162.61C519.485 162.949 519.533 163.287 519.787 163.626C520.046 163.953 520.49 164.374 521.119 164.887C521.759 165.407 522.27 165.873 522.651 166.286C523.032 166.699 523.296 167.19 523.443 167.759C523.607 168.321 523.541 168.937 523.243 169.607C522.972 170.188 522.567 170.631 522.027 170.938C521.498 171.251 520.87 171.399 520.142 171.383C519.431 171.361 518.677 171.164 517.88 170.792Z" fill="#232D42"/>
<defs>
<filter id="filter0_d_16_1320" x="82.5737" y="0.57373" width="519.687" height="482.357" filterUnits="userSpaceOnUse" color-interpolation-filters="sRGB">
<feFlood flood-opacity="0" result="BackgroundImageFix"/>
<feColorMatrix in="SourceAlpha" type="matrix" values="0 0 0 0 0 0 0 0 0 0 0 0 0 0 0 0 0 0 127 0" result="hardAlpha"/>
<feOffset dx="-60" dy="60"/>
<feGaussianBlur stdDeviation="50"/>
<feColorMatrix type="matrix" values="0 0 0 0 0.62862 0 0 0 0 0.557604 0 0 0 0 0.841667 0 0 0 0.3 0"/>
<feBlend mode="normal" in2="BackgroundImageFix" result="effect1_dropShadow_16_1320"/>
<feBlend mode="normal" in="SourceGraphic" in2="effect1_dropShadow_16_1320" result="shape"/>
</filter>
<filter id="filter1_dd_16_1320" x="339.914" y="105.193" width="83.0548" height="75.9927" filterUnits="userSpaceOnUse" color-interpolation-filters="sRGB">
<feFlood flood-opacity="0" result="BackgroundImageFix"/>
<feColorMatrix in="SourceAlpha" type="matrix" values="0 0 0 0 0 0 0 0 0 0 0 0 0 0 0 0 0 0 127 0" result="hardAlpha"/>
<feOffset dy="4"/>
<feGaussianBlur stdDeviation="12"/>
<feColorMatrix type="matrix" values="0 0 0 0 0 0 0 0 0 0 0 0 0 0 0 0 0 0 0.08 0"/>
<feBlend mode="normal" in2="BackgroundImageFix" result="effect1_dropShadow_16_1320"/>
<feColorMatrix in="SourceAlpha" type="matrix" values="0 0 0 0 0 0 0 0 0 0 0 0 0 0 0 0 0 0 127 0" result="hardAlpha"/>
<feOffset dy="2"/>
<feGaussianBlur stdDeviation="2"/>
<feColorMatrix type="matrix" values="0 0 0 0 0 0 0 0 0 0 0 0 0 0 0 0 0 0 0.08 0"/>
<feBlend mode="normal" in2="effect1_dropShadow_16_1320" result="effect2_dropShadow_16_1320"/>
<feBlend mode="normal" in="SourceGraphic" in2="effect2_dropShadow_16_1320" result="shape"/>
</filter>
</defs>
</svg>
