<svg width="737" height="640" viewBox="0 0 737 640" fill="none" xmlns="http://www.w3.org/2000/svg">
<g filter="url(#filter0_d_16_1366)">
<rect x="46" y="305.689" width="274.996" height="197.82" rx="20" transform="rotate(-30 46 305.689)" fill="white"/>
<rect x="46.683" y="305.872" width="273.996" height="196.82" rx="19.5" transform="rotate(-30 46.683 305.872)" stroke="#F1ECFF"/>
</g>
<mask id="mask0_16_1366" style="mask-type:alpha" maskUnits="userSpaceOnUse" x="53" y="175" width="324" height="295">
<rect x="46.3313" y="305.498" width="274.996" height="197.82" rx="20" transform="rotate(-30 46.3313 305.498)" fill="white"/>
</mask>
<g mask="url(#mask0_16_1366)">
<path d="M99.2417 403.907L102.887 374.805L120.789 364.469L118.109 316.829L131.336 298.395L146.838 282.247L181.56 299.39L193.748 279.157L200.938 248.613L233.905 264.37L237.459 227.528L278.415 255.468L296.836 246.032L310.78 227.185L343.227 242.042L367.56 241.19" stroke="#7951F9" stroke-width="2"/>
<path d="M92.5802 399.95L101.329 372.105L125.465 372.566L133.693 343.822L140.687 314.591L167.617 318.237L164.417 269.698L190.112 272.859L227.951 295.401L244.814 283.265L258.238 263.518L276.856 252.769L302.551 255.929L330 260.476L348.942 251.94L367.56 241.19" stroke="#FB4C5C" stroke-width="2"/>
<g filter="url(#filter1_d_16_1366)">
<path d="M221.34 247.388C220.236 245.475 220.891 243.028 222.804 241.924L255.713 222.924C257.627 221.819 260.073 222.475 261.177 224.388L270.378 240.323C271.482 242.236 270.827 244.682 268.913 245.787L258.15 252.001L255.759 261.003L246.768 258.573L236.004 264.787C234.091 265.891 231.645 265.236 230.54 263.323L221.34 247.388Z" fill="#F7F4FD"/>
<path d="M257.9 251.568L257.72 251.672L257.667 251.873L255.405 260.389L246.898 258.09L246.698 258.036L246.518 258.14L235.754 264.354C234.08 265.32 231.94 264.747 230.973 263.073L221.773 247.138C220.807 245.464 221.38 243.323 223.054 242.357L255.963 223.357C257.637 222.39 259.778 222.964 260.744 224.638L269.944 240.573C270.911 242.247 270.337 244.387 268.663 245.354L257.9 251.568Z" stroke="#E8E0FF"/>
</g>
<path d="M243.612 248.132C243.92 248.665 243.978 249.237 243.785 249.847C243.588 250.45 243.107 251.001 242.341 251.498L243.031 252.693L242.511 252.993L241.827 251.809C241.306 252.073 240.772 252.252 240.225 252.346C239.682 252.428 239.206 252.412 238.798 252.297L238.757 251.53C239.136 251.626 239.565 251.641 240.045 251.577C240.532 251.508 240.998 251.364 241.443 251.143L239.865 248.41C239.319 248.568 238.849 248.674 238.454 248.726C238.056 248.772 237.675 248.728 237.312 248.596C236.952 248.453 236.648 248.166 236.4 247.737C236.092 247.203 236.028 246.644 236.208 246.06C236.384 245.469 236.835 244.922 237.561 244.42L236.871 243.224L237.391 242.924L238.075 244.109C238.478 243.895 238.897 243.741 239.332 243.647C239.77 243.542 240.179 243.504 240.557 243.536L240.651 244.299C240.263 244.283 239.879 244.315 239.501 244.395C239.122 244.475 238.773 244.598 238.453 244.764L240.043 247.518C240.628 247.347 241.121 247.233 241.523 247.176C241.92 247.113 242.306 247.149 242.68 247.284C243.053 247.42 243.364 247.702 243.612 248.132ZM237.147 247.278C237.355 247.638 237.645 247.836 238.016 247.871C238.394 247.902 238.871 247.839 239.445 247.683L237.945 245.085C237.457 245.422 237.151 245.788 237.028 246.183C236.907 246.566 236.947 246.931 237.147 247.278ZM241.963 250.843C242.486 250.486 242.821 250.113 242.966 249.724C243.111 249.336 243.081 248.965 242.877 248.611C242.661 248.237 242.357 248.038 241.965 248.015C241.573 247.992 241.073 248.069 240.463 248.245L241.963 250.843ZM250.683 245.726L251.067 246.391L245.965 249.337L245.659 248.807L246.973 244.099C247.138 243.505 247.208 243.035 247.184 242.688C247.162 242.331 247.072 242.014 246.912 241.737C246.664 241.308 246.323 241.061 245.889 240.997C245.458 240.923 244.969 241.044 244.421 241.36C243.569 241.852 243.064 242.504 242.904 243.316L242.11 243.165C242.202 242.668 242.415 242.204 242.747 241.772C243.087 241.336 243.533 240.958 244.088 240.638C244.829 240.21 245.516 240.048 246.15 240.154C246.787 240.248 247.281 240.6 247.633 241.21C247.849 241.584 247.974 241.992 248.007 242.435C248.041 242.877 247.956 243.458 247.752 244.176L246.682 248.036L250.683 245.726ZM251.787 240.253C252.84 239.645 253.716 239.393 254.414 239.498C255.115 239.592 255.661 239.979 256.053 240.658C256.297 241.08 256.415 241.516 256.406 241.965C256.404 242.409 256.261 242.842 255.978 243.264C255.691 243.679 255.26 244.053 254.685 244.385C254.166 244.685 253.622 244.888 253.055 244.994C252.491 245.088 251.985 245.076 251.537 244.956L251.559 244.153C251.945 244.263 252.382 244.283 252.869 244.214C253.352 244.139 253.822 243.969 254.279 243.705C254.882 243.357 255.268 242.954 255.438 242.496C255.614 242.034 255.572 241.577 255.312 241.127C255.024 240.628 254.619 240.359 254.097 240.318C253.582 240.274 252.885 240.506 252.005 241.014L250.456 241.908L248.724 238.044L252.705 235.746L253.089 236.411L249.763 238.331L250.852 240.793L251.787 240.253Z" fill="#232D42"/>
<path opacity="0.7" d="M154.893 404.265L159.075 411.509L158.129 412.055L153.947 404.811L154.893 404.265ZM159.349 404.797L161.287 408.153C161.447 408.43 161.619 408.594 161.805 408.644C161.987 408.687 162.223 408.624 162.514 408.456L163.211 408.054L163.673 408.854L162.82 409.346C162.294 409.65 161.829 409.757 161.426 409.666C161.022 409.576 160.661 409.254 160.341 408.699L158.403 405.343L157.665 405.769L157.215 404.989L157.953 404.563L157.125 403.129L158.071 402.583L158.899 404.017L160.385 403.159L160.835 403.939L159.349 404.797ZM168.591 401.927C168.695 402.107 168.795 402.304 168.89 402.517L164.338 405.145C164.697 405.686 165.141 406.016 165.672 406.134C166.205 406.242 166.721 406.152 167.22 405.864C167.629 405.628 167.914 405.338 168.076 404.995C168.241 404.641 168.287 404.273 168.214 403.89L169.233 403.302C169.396 403.938 169.349 404.561 169.092 405.171C168.831 405.774 168.361 406.272 167.682 406.664C167.141 406.976 166.586 407.135 166.017 407.14C165.454 407.142 164.924 406.991 164.425 406.688C163.923 406.377 163.502 405.928 163.162 405.339C162.822 404.75 162.641 404.166 162.621 403.586C162.6 403.007 162.733 402.477 163.02 401.998C163.31 401.507 163.732 401.102 164.286 400.782C164.826 400.47 165.372 400.312 165.924 400.307C166.476 400.303 166.982 400.445 167.444 400.732C167.909 401.009 168.291 401.407 168.591 401.927ZM167.5 402.293C167.292 401.933 167.034 401.671 166.727 401.507C166.416 401.335 166.084 401.264 165.73 401.292C165.38 401.31 165.039 401.414 164.706 401.606C164.228 401.882 163.907 402.271 163.744 402.772C163.587 403.268 163.641 403.801 163.904 404.369L167.5 402.293ZM175.456 394.319C175.9 394.063 176.349 393.929 176.803 393.916C177.253 393.896 177.685 394.011 178.098 394.263C178.511 394.514 178.869 394.903 179.173 395.429L181.111 398.786L180.176 399.326L178.316 396.104C177.988 395.536 177.596 395.185 177.14 395.051C176.687 394.906 176.221 394.972 175.743 395.248C175.251 395.532 174.952 395.917 174.845 396.404C174.734 396.884 174.85 397.422 175.194 398.017L177.006 401.156L176.071 401.696L174.211 398.474C173.883 397.906 173.491 397.555 173.035 397.421C172.582 397.276 172.116 397.342 171.638 397.618C171.146 397.902 170.847 398.287 170.74 398.774C170.629 399.254 170.745 399.792 171.089 400.387L172.901 403.526L171.956 404.072L168.668 398.377L169.613 397.831L170.087 398.652C170.102 398.246 170.22 397.873 170.44 397.534C170.666 397.191 170.97 396.909 171.351 396.689C171.829 396.413 172.314 396.276 172.805 396.279C173.296 396.282 173.752 396.439 174.172 396.751C174.099 396.257 174.183 395.793 174.422 395.36C174.661 394.926 175.006 394.579 175.456 394.319ZM182.703 390.37C182.384 389.705 182.342 389.064 182.577 388.448C182.813 387.832 183.284 387.32 183.99 386.912C184.461 386.64 184.917 386.492 185.356 386.469C185.799 386.436 186.19 386.514 186.532 386.705C186.88 386.892 187.16 387.169 187.372 387.537C187.62 387.966 187.709 388.409 187.64 388.865C187.577 389.316 187.375 389.701 187.032 390.019L187.062 390.071C187.576 389.922 188.059 389.934 188.51 390.108C188.961 390.282 189.339 390.632 189.643 391.158C189.871 391.553 189.987 391.962 189.991 392.385C189.991 392.8 189.862 393.202 189.606 393.59C189.35 393.979 188.969 394.319 188.463 394.611C187.729 395.035 187.016 395.192 186.325 395.083C185.63 394.967 185.05 394.572 184.587 393.897L185.502 393.369C185.79 393.757 186.156 393.998 186.599 394.094C187.042 394.189 187.506 394.096 187.991 393.816C188.476 393.536 188.771 393.2 188.876 392.806C188.985 392.402 188.923 391.999 188.691 391.597C188.391 391.077 188.002 390.803 187.523 390.775C187.045 390.746 186.456 390.934 185.756 391.338L185.517 391.476L185.061 390.686L185.31 390.542C185.944 390.167 186.365 389.785 186.575 389.396C186.781 389 186.759 388.588 186.511 388.158C186.299 387.791 186.008 387.566 185.638 387.485C185.274 387.399 184.871 387.484 184.427 387.74C183.998 387.988 183.715 388.299 183.58 388.673C183.445 389.046 183.461 389.434 183.628 389.836L182.703 390.37ZM190.222 388.413C189.534 387.221 189.192 386.181 189.196 385.292C189.196 384.396 189.681 383.668 190.651 383.108C191.614 382.552 192.484 382.498 193.26 382.946C194.032 383.387 194.762 384.203 195.45 385.395C196.15 386.607 196.5 387.661 196.5 388.557C196.5 389.453 196.018 390.18 195.055 390.736C194.085 391.296 193.212 391.351 192.436 390.903C191.66 390.455 190.922 389.625 190.222 388.413ZM194.514 385.935C194.166 385.332 193.831 384.847 193.508 384.479C193.187 384.1 192.829 383.855 192.431 383.743C192.041 383.626 191.613 383.702 191.149 383.97C190.678 384.242 190.392 384.578 190.29 384.979C190.196 385.375 190.229 385.808 190.39 386.279C190.554 386.739 190.81 387.27 191.158 387.873C191.518 388.496 191.858 388.997 192.178 389.376C192.505 389.751 192.864 389.996 193.254 390.112C193.652 390.225 194.086 390.145 194.557 389.873C195.021 389.605 195.301 389.273 195.395 388.876C195.497 388.476 195.463 388.043 195.296 387.576C195.135 387.105 194.874 386.558 194.514 385.935ZM204.92 385.137C204.442 385.413 203.964 385.578 203.487 385.632C203.013 385.674 202.583 385.609 202.196 385.435C201.805 385.254 201.492 384.968 201.257 384.577L202.265 383.995C202.496 384.315 202.801 384.522 203.179 384.618C203.561 384.703 203.987 384.609 204.458 384.337C204.908 384.077 205.198 383.762 205.326 383.392C205.457 383.012 205.421 382.645 205.217 382.291C205.057 382.014 204.851 381.833 204.598 381.748C204.346 381.663 204.079 381.641 203.799 381.683C203.518 381.725 203.154 381.806 202.706 381.926C202.156 382.077 201.699 382.175 201.336 382.218C200.98 382.257 200.622 382.205 200.262 382.062C199.905 381.908 199.597 381.605 199.337 381.155C199.109 380.76 199.007 380.352 199.032 379.931C199.057 379.511 199.202 379.113 199.466 378.739C199.737 378.36 200.108 378.035 200.58 377.763C201.259 377.371 201.911 377.221 202.536 377.313C203.169 377.4 203.675 377.708 204.054 378.238L203.015 378.838C202.82 378.58 202.535 378.422 202.158 378.362C201.778 378.295 201.377 378.384 200.954 378.628C200.559 378.856 200.297 379.146 200.168 379.498C200.034 379.843 200.073 380.199 200.285 380.566C200.437 380.829 200.634 381.002 200.876 381.084C201.124 381.162 201.382 381.185 201.648 381.151C201.918 381.106 202.282 381.025 202.741 380.908C203.295 380.763 203.756 380.673 204.123 380.637C204.486 380.593 204.849 380.647 205.213 380.797C205.573 380.94 205.885 381.241 206.149 381.698C206.353 382.051 206.451 382.438 206.444 382.857C206.437 383.277 206.306 383.69 206.051 384.096C205.796 384.502 205.419 384.849 204.92 385.137ZM207.018 380.005C206.682 379.423 206.505 378.845 206.489 378.273C206.469 377.693 206.593 377.165 206.861 376.686C207.137 376.204 207.528 375.816 208.034 375.524C208.532 375.236 209.028 375.094 209.519 375.096C210.01 375.099 210.44 375.211 210.808 375.433L210.208 374.394L211.164 373.842L214.452 379.537L213.496 380.089L212.884 379.029C212.889 379.469 212.768 379.908 212.522 380.346C212.279 380.773 211.911 381.128 211.419 381.412C210.914 381.704 210.384 381.844 209.831 381.83C209.279 381.817 208.755 381.653 208.259 381.339C207.763 381.024 207.35 380.58 207.018 380.005ZM211.846 377.231C211.598 376.801 211.295 376.477 210.938 376.259C210.581 376.04 210.205 375.933 209.811 375.939C209.42 375.934 209.048 376.033 208.695 376.237C208.341 376.441 208.067 376.71 207.872 377.045C207.677 377.379 207.585 377.755 207.596 378.174C207.607 378.593 207.736 379.017 207.984 379.447C208.236 379.883 208.543 380.214 208.904 380.44C209.261 380.658 209.635 380.77 210.026 380.776C210.413 380.774 210.783 380.671 211.137 380.467C211.49 380.263 211.764 379.994 211.959 379.66C212.157 379.314 212.251 378.932 212.24 378.514C212.225 378.088 212.094 377.66 211.846 377.231ZM212.902 370.178L217.342 377.868L216.396 378.414L211.956 370.724L212.902 370.178ZM222.726 370.672C222.83 370.852 222.93 371.049 223.025 371.261L218.473 373.889C218.832 374.431 219.277 374.761 219.807 374.879C220.34 374.987 220.856 374.897 221.355 374.609C221.764 374.373 222.049 374.083 222.212 373.74C222.377 373.386 222.423 373.018 222.35 372.635L223.368 372.047C223.532 372.683 223.485 373.305 223.228 373.916C222.966 374.519 222.496 375.017 221.817 375.409C221.277 375.721 220.722 375.88 220.152 375.885C219.59 375.887 219.059 375.736 218.561 375.433C218.058 375.122 217.637 374.673 217.297 374.084C216.957 373.495 216.777 372.911 216.756 372.331C216.736 371.752 216.869 371.222 217.155 370.743C217.445 370.252 217.867 369.847 218.421 369.527C218.962 369.215 219.508 369.057 220.059 369.052C220.611 369.048 221.118 369.19 221.579 369.477C222.044 369.754 222.426 370.152 222.726 370.672ZM221.636 371.038C221.428 370.678 221.17 370.416 220.862 370.251C220.551 370.08 220.219 370.009 219.866 370.037C219.516 370.055 219.174 370.159 218.842 370.351C218.364 370.627 218.043 371.016 217.879 371.517C217.723 372.013 217.776 372.546 218.04 373.114L221.636 371.038ZM228.161 371.746C227.725 371.998 227.291 372.152 226.861 372.206C226.426 372.254 226.033 372.204 225.68 372.057C225.323 371.902 225.034 371.658 224.813 371.324L225.79 370.76C225.982 371.028 226.248 371.184 226.587 371.228C226.934 371.268 227.301 371.176 227.689 370.952C228.049 370.744 228.287 370.501 228.403 370.221C228.519 369.942 228.507 369.681 228.367 369.438C228.223 369.189 228.006 369.069 227.716 369.08C227.422 369.083 227.01 369.16 226.477 369.31C225.991 369.443 225.58 369.532 225.246 369.577C224.915 369.612 224.588 369.574 224.266 369.464C223.947 369.343 223.682 369.1 223.47 368.732C223.302 368.441 223.234 368.125 223.267 367.782C223.301 367.44 223.437 367.107 223.675 366.785C223.91 366.455 224.232 366.172 224.64 365.936C225.271 365.572 225.872 365.438 226.444 365.532C227.016 365.627 227.476 365.944 227.824 366.482L226.878 367.028C226.685 366.742 226.426 366.573 226.1 366.521C225.781 366.465 225.439 366.543 225.071 366.755C224.732 366.951 224.504 367.179 224.387 367.441C224.27 367.702 224.279 367.951 224.415 368.186C224.523 368.373 224.672 368.495 224.862 368.552C225.055 368.598 225.263 368.607 225.487 368.579C225.714 368.54 226.017 368.472 226.394 368.374C226.867 368.249 227.264 368.168 227.584 368.131C227.9 368.087 228.211 368.12 228.515 368.231C228.826 368.337 229.085 368.562 229.292 368.904C229.472 369.216 229.547 369.547 229.518 369.896C229.489 370.246 229.357 370.585 229.122 370.915C228.89 371.233 228.57 371.51 228.161 371.746Z" fill="#232D42"/>
<circle cx="143.446" cy="415.706" r="4" transform="rotate(-30 143.446 415.706)" fill="#7951F9"/>
<path d="M172.796 423.431C173.039 423.852 173.159 424.311 173.155 424.808C173.155 425.293 173.015 425.779 172.734 426.264C172.457 426.736 172.048 427.156 171.505 427.523L172.072 428.505L171.296 428.953L170.722 427.959C169.872 428.353 169.081 428.486 168.35 428.358C167.615 428.223 167.033 427.804 166.606 427.102L168.425 426.052C168.81 426.606 169.312 426.785 169.931 426.589L168.594 424.273C167.928 424.464 167.376 424.589 166.936 424.649C166.496 424.708 166.054 424.651 165.608 424.477C165.163 424.303 164.779 423.937 164.457 423.38C164.051 422.677 163.971 421.958 164.215 421.224C164.468 420.486 164.975 419.853 165.738 419.326L165.171 418.344L165.947 417.896L166.514 418.878C167.328 418.495 168.081 418.372 168.775 418.51C169.477 418.644 170.062 419.05 170.529 419.729L168.699 420.786C168.539 420.565 168.337 420.412 168.094 420.326C167.854 420.228 167.596 420.21 167.319 420.273L168.642 422.564C169.337 422.368 169.9 422.242 170.332 422.187C170.767 422.119 171.207 422.172 171.652 422.346C172.093 422.512 172.474 422.873 172.796 423.431ZM166.179 422.273C166.333 422.54 166.539 422.711 166.799 422.788C167.054 422.856 167.365 422.854 167.733 422.782L166.522 420.684C166.255 420.893 166.087 421.135 166.02 421.411C165.953 421.686 166.006 421.974 166.179 422.273ZM170.721 426.165C170.996 425.931 171.162 425.668 171.22 425.376C171.285 425.08 171.239 424.794 171.08 424.519C170.926 424.252 170.718 424.087 170.455 424.023C170.192 423.96 169.872 423.966 169.496 424.043L170.721 426.165ZM176.815 421.047C177.085 421.365 177.389 421.556 177.727 421.619C178.069 421.67 178.434 421.583 178.822 421.359C179.323 421.07 179.567 420.653 179.556 420.111C179.539 419.56 179.247 418.791 178.677 417.805C178.641 418.171 178.495 418.525 178.239 418.866C177.992 419.203 177.674 419.483 177.286 419.707C176.769 420.006 176.239 420.172 175.698 420.204C175.159 420.224 174.648 420.094 174.163 419.813C173.673 419.525 173.253 419.078 172.903 418.471C172.385 417.574 172.241 416.709 172.471 415.876C172.697 415.034 173.27 414.347 174.192 413.815C175.339 413.153 176.36 413.054 177.253 413.519C178.155 413.979 179.033 414.949 179.887 416.428C180.493 417.479 180.897 418.393 181.099 419.171C181.308 419.945 181.291 420.634 181.047 421.238C180.811 421.837 180.314 422.357 179.554 422.795C178.956 423.141 178.381 423.321 177.83 423.338C177.275 423.346 176.776 423.23 176.335 422.988C175.898 422.735 175.532 422.391 175.238 421.957L176.815 421.047ZM176.84 418.122C177.26 417.88 177.517 417.559 177.61 417.16C177.703 416.762 177.624 416.344 177.372 415.908C177.096 415.431 176.755 415.138 176.347 415.028C175.942 414.906 175.522 414.971 175.085 415.223C174.649 415.475 174.38 415.813 174.28 416.237C174.184 416.649 174.264 417.077 174.521 417.521C174.768 417.95 175.092 418.231 175.493 418.366C175.898 418.488 176.347 418.407 176.84 418.122ZM185.01 410.786C184.733 410.493 184.445 410.321 184.145 410.267C183.853 410.21 183.521 410.288 183.149 410.503C182.591 410.825 182.31 411.289 182.304 411.896C182.302 412.49 182.589 413.294 183.164 414.309C183.172 413.874 183.31 413.46 183.579 413.067C183.843 412.667 184.194 412.341 184.63 412.089C185.156 411.785 185.686 411.63 186.221 411.623C186.755 411.616 187.262 411.765 187.74 412.071C188.214 412.369 188.626 412.821 188.976 413.427C189.307 414.001 189.486 414.582 189.513 415.17C189.544 415.745 189.409 416.286 189.109 416.794C188.809 417.301 188.352 417.732 187.738 418.087C186.897 418.572 186.127 418.769 185.427 418.677C184.736 418.58 184.102 418.257 183.525 417.706C182.952 417.142 182.383 416.372 181.818 415.394C180.964 413.914 180.575 412.652 180.65 411.606C180.72 410.552 181.305 409.708 182.405 409.074C183.253 408.584 184.045 408.434 184.78 408.624C185.515 408.814 186.117 409.231 186.586 409.876L185.01 410.786ZM185.047 413.707C184.619 413.954 184.332 414.287 184.185 414.706C184.039 415.124 184.103 415.572 184.379 416.049C184.654 416.526 185.005 416.825 185.43 416.946C185.863 417.062 186.327 416.977 186.82 416.693C187.256 416.441 187.523 416.109 187.619 415.698C187.724 415.282 187.646 414.847 187.384 414.395C187.114 413.926 186.774 413.626 186.364 413.496C185.963 413.361 185.524 413.432 185.047 413.707ZM191.82 413.143C192.223 412.048 192.531 411.154 192.744 410.46C192.953 409.757 193.075 409.083 193.112 408.437C193.148 407.79 193.036 407.241 192.774 406.788C192.536 406.376 192.253 406.109 191.923 405.987C191.594 405.864 191.227 405.92 190.823 406.153C190.419 406.386 190.187 406.703 190.128 407.104C190.063 407.497 190.163 407.93 190.425 408.403L188.776 409.355C188.249 408.367 188.111 407.466 188.363 406.652C188.623 405.833 189.174 405.181 190.015 404.696C190.936 404.164 191.786 404.002 192.563 404.211C193.336 404.411 193.954 404.911 194.416 405.711C194.78 406.342 194.958 407.042 194.95 407.812C194.941 408.582 194.843 409.307 194.654 409.987C194.46 410.66 194.184 411.498 193.826 412.502L197.403 410.437L198.215 411.844L192.225 415.302L191.497 414.041L191.82 413.143ZM200.73 410.666C200.423 410.843 200.115 410.897 199.805 410.828C199.499 410.746 199.265 410.564 199.101 410.281C198.938 409.998 198.9 409.708 198.986 409.41C199.076 409.099 199.275 408.855 199.582 408.678C199.881 408.505 200.184 408.46 200.49 408.542C200.791 408.616 201.023 408.794 201.187 409.077C201.35 409.36 201.391 409.654 201.309 409.96C201.222 410.258 201.029 410.493 200.73 410.666ZM199.531 402.564C199.105 401.732 199.029 400.947 199.302 400.207C199.579 399.454 200.15 398.828 201.015 398.329C201.605 397.988 202.17 397.802 202.712 397.769C203.249 397.729 203.725 397.826 204.141 398.06C204.56 398.281 204.897 398.615 205.154 399.059C205.448 399.568 205.564 400.078 205.503 400.587C205.445 401.084 205.269 401.498 204.975 401.83L205.003 401.878C205.556 401.753 206.069 401.802 206.543 402.024C207.024 402.242 207.433 402.642 207.769 403.224C208.049 403.709 208.185 404.206 208.178 404.717C208.179 405.223 208.025 405.711 207.714 406.181C207.407 406.639 206.95 407.042 206.344 407.392C205.431 407.92 204.554 408.119 203.714 407.989C202.874 407.86 202.179 407.356 201.629 406.477L203.278 405.525C203.523 405.912 203.84 406.154 204.231 406.252C204.625 406.337 205.044 406.252 205.489 405.995C205.901 405.757 206.151 405.462 206.239 405.109C206.33 404.744 206.27 404.38 206.06 404.016C205.78 403.531 205.426 403.272 204.997 403.24C204.569 403.207 204.031 403.377 203.385 403.75L203.033 403.953L202.228 402.559L202.58 402.356C203.727 401.693 204.08 400.978 203.636 400.21C203.436 399.863 203.174 399.653 202.852 399.58C202.538 399.503 202.187 399.576 201.799 399.8C201.419 400.019 201.185 400.295 201.096 400.626C201.011 400.945 201.043 401.271 201.192 401.605L199.531 402.564ZM211.434 401.059C211.704 401.377 212.008 401.568 212.347 401.631C212.688 401.682 213.053 401.595 213.441 401.371C213.942 401.082 214.187 400.666 214.176 400.123C214.159 399.572 213.866 398.803 213.297 397.817C213.26 398.183 213.114 398.537 212.859 398.878C212.612 399.215 212.294 399.496 211.906 399.72C211.389 400.018 210.859 400.184 210.317 400.216C209.779 400.236 209.268 400.106 208.782 399.826C208.293 399.537 207.873 399.09 207.523 398.484C207.005 397.587 206.861 396.721 207.091 395.888C207.316 395.046 207.89 394.36 208.811 393.828C209.959 393.165 210.98 393.066 211.873 393.531C212.775 393.991 213.652 394.961 214.506 396.44C215.113 397.491 215.517 398.405 215.719 399.184C215.928 399.957 215.911 400.646 215.667 401.25C215.431 401.85 214.933 402.369 214.174 402.808C213.575 403.153 213.001 403.334 212.45 403.35C211.894 403.358 211.396 403.242 210.955 403.001C210.517 402.747 210.152 402.403 209.858 401.969L211.434 401.059ZM211.459 398.135C211.88 397.892 212.137 397.571 212.23 397.173C212.323 396.774 212.243 396.356 211.991 395.92C211.716 395.443 211.374 395.15 210.966 395.041C210.562 394.918 210.141 394.983 209.705 395.235C209.268 395.487 209 395.826 208.9 396.25C208.804 396.661 208.884 397.089 209.14 397.534C209.388 397.962 209.712 398.244 210.113 398.378C210.518 398.501 210.966 398.419 211.459 398.135Z" fill="#232D42"/>
<path opacity="0.7" d="M262.28 342.265L266.462 349.509L265.516 350.055L261.334 342.811L262.28 342.265ZM266.736 342.797L268.674 346.153C268.834 346.43 269.007 346.594 269.192 346.644C269.374 346.687 269.611 346.624 269.902 346.456L270.598 346.054L271.06 346.854L270.208 347.346C269.681 347.65 269.216 347.757 268.813 347.666C268.41 347.576 268.048 347.254 267.728 346.699L265.79 343.343L265.052 343.769L264.602 342.989L265.34 342.563L264.512 341.129L265.458 340.583L266.286 342.017L267.772 341.159L268.222 341.939L266.736 342.797ZM275.978 339.927C276.082 340.107 276.182 340.304 276.277 340.517L271.725 343.145C272.084 343.686 272.528 344.016 273.059 344.134C273.592 344.242 274.108 344.152 274.607 343.864C275.016 343.628 275.301 343.338 275.463 342.995C275.629 342.641 275.675 342.273 275.601 341.89L276.62 341.302C276.783 341.938 276.737 342.561 276.479 343.171C276.218 343.774 275.748 344.272 275.069 344.664C274.529 344.976 273.974 345.135 273.404 345.14C272.841 345.142 272.311 344.991 271.812 344.688C271.31 344.377 270.889 343.928 270.549 343.339C270.209 342.75 270.028 342.166 270.008 341.586C269.988 341.007 270.121 340.477 270.407 339.998C270.697 339.507 271.119 339.102 271.673 338.782C272.213 338.47 272.759 338.312 273.311 338.307C273.863 338.303 274.37 338.445 274.831 338.732C275.296 339.009 275.678 339.407 275.978 339.927ZM274.887 340.293C274.679 339.933 274.422 339.671 274.114 339.507C273.803 339.335 273.471 339.264 273.118 339.292C272.767 339.31 272.426 339.414 272.093 339.606C271.615 339.882 271.295 340.271 271.131 340.772C270.975 341.268 271.028 341.801 271.292 342.369L274.887 340.293ZM282.843 332.319C283.287 332.063 283.736 331.929 284.19 331.916C284.641 331.896 285.072 332.011 285.485 332.263C285.898 332.514 286.257 332.903 286.561 333.429L288.499 336.786L287.563 337.326L285.703 334.104C285.375 333.536 284.983 333.185 284.527 333.051C284.074 332.906 283.608 332.972 283.13 333.248C282.638 333.532 282.339 333.917 282.232 334.404C282.121 334.884 282.238 335.422 282.582 336.017L284.394 339.156L283.458 339.696L281.598 336.474C281.27 335.906 280.878 335.555 280.422 335.421C279.969 335.276 279.503 335.342 279.025 335.618C278.534 335.902 278.234 336.287 278.127 336.774C278.016 337.254 278.133 337.792 278.477 338.387L280.289 341.526L279.343 342.072L276.055 336.377L277.001 335.831L277.475 336.652C277.49 336.246 277.607 335.873 277.827 335.534C278.054 335.191 278.357 334.909 278.738 334.689C279.217 334.413 279.701 334.276 280.192 334.279C280.684 334.282 281.139 334.439 281.559 334.751C281.487 334.257 281.57 333.793 281.809 333.36C282.048 332.926 282.393 332.579 282.843 332.319ZM289.268 327.474L288.77 326.611L290.724 325.483L295.062 332.997L294.106 333.549L290.266 326.898L289.268 327.474ZM295.838 330.318L295.424 329.601L296.156 322.444L297.288 321.79L300.144 326.737L301.184 326.137L301.658 326.958L300.618 327.558L301.584 329.231L300.649 329.771L299.683 328.098L295.838 330.318ZM296.965 323.293L296.455 328.867L299.251 327.253L296.965 323.293ZM309.526 324.743C309.048 325.019 308.571 325.183 308.094 325.237C307.62 325.28 307.189 325.214 306.802 325.04C306.412 324.86 306.099 324.574 305.864 324.183L306.872 323.601C307.103 323.92 307.407 324.128 307.786 324.223C308.167 324.308 308.593 324.214 309.064 323.942C309.515 323.682 309.804 323.367 309.932 322.998C310.064 322.617 310.027 322.25 309.823 321.897C309.663 321.62 309.457 321.439 309.205 321.353C308.952 321.268 308.686 321.246 308.405 321.288C308.124 321.33 307.76 321.411 307.312 321.531C306.762 321.683 306.306 321.78 305.943 321.823C305.587 321.863 305.229 321.811 304.869 321.667C304.512 321.513 304.203 321.211 303.943 320.761C303.715 320.366 303.614 319.958 303.639 319.537C303.664 319.116 303.808 318.719 304.073 318.344C304.344 317.966 304.715 317.641 305.186 317.369C305.865 316.977 306.517 316.827 307.143 316.918C307.775 317.006 308.281 317.314 308.661 317.843L307.621 318.443C307.427 318.186 307.141 318.027 306.765 317.968C306.385 317.901 305.983 317.989 305.56 318.233C305.166 318.461 304.903 318.751 304.774 319.103C304.641 319.448 304.68 319.804 304.892 320.171C305.044 320.435 305.241 320.607 305.482 320.69C305.731 320.768 305.988 320.79 306.255 320.756C306.525 320.711 306.889 320.63 307.348 320.513C307.902 320.369 308.362 320.278 308.729 320.242C309.092 320.199 309.456 320.252 309.82 320.402C310.179 320.546 310.491 320.846 310.755 321.303C310.959 321.657 311.058 322.043 311.051 322.463C311.044 322.883 310.913 323.296 310.657 323.702C310.402 324.108 310.025 324.455 309.526 324.743ZM311.624 319.61C311.288 319.028 311.112 318.451 311.095 317.878C311.075 317.299 311.199 316.77 311.468 316.292C311.744 315.809 312.134 315.422 312.64 315.13C313.139 314.842 313.634 314.699 314.125 314.702C314.616 314.705 315.046 314.817 315.414 315.039L314.814 313.999L315.77 313.447L319.058 319.142L318.102 319.694L317.49 318.634C317.495 319.075 317.374 319.514 317.128 319.952C316.885 320.378 316.518 320.734 316.026 321.018C315.52 321.31 314.991 321.449 314.438 321.436C313.885 321.422 313.361 321.258 312.865 320.944C312.37 320.63 311.956 320.185 311.624 319.61ZM316.452 316.836C316.204 316.407 315.902 316.083 315.544 315.864C315.187 315.645 314.812 315.539 314.418 315.545C314.027 315.539 313.655 315.639 313.301 315.843C312.948 316.047 312.674 316.316 312.479 316.65C312.284 316.984 312.192 317.361 312.202 317.78C312.213 318.198 312.343 318.622 312.591 319.052C312.843 319.489 313.149 319.82 313.51 320.045C313.868 320.264 314.242 320.376 314.633 320.381C315.02 320.379 315.39 320.276 315.743 320.072C316.097 319.868 316.371 319.599 316.566 319.265C316.764 318.92 316.857 318.538 316.846 318.119C316.832 317.694 316.7 317.266 316.452 316.836ZM317.508 309.783L321.948 317.474L321.003 318.02L316.563 310.329L317.508 309.783ZM327.333 310.277C327.437 310.457 327.536 310.654 327.632 310.867L323.08 313.495C323.438 314.036 323.883 314.366 324.413 314.485C324.947 314.592 325.463 314.502 325.962 314.214C326.37 313.978 326.656 313.689 326.818 313.346C326.983 312.992 327.029 312.623 326.956 312.241L327.975 311.653C328.138 312.288 328.091 312.911 327.834 313.521C327.573 314.125 327.103 314.623 326.424 315.015C325.883 315.327 325.328 315.485 324.759 315.491C324.196 315.492 323.666 315.341 323.167 315.038C322.665 314.728 322.243 314.278 321.903 313.689C321.563 313.1 321.383 312.516 321.363 311.937C321.342 311.357 321.475 310.828 321.762 310.348C322.051 309.858 322.473 309.453 323.028 309.133C323.568 308.821 324.114 308.662 324.666 308.658C325.217 308.653 325.724 308.795 326.186 309.083C326.651 309.36 327.033 309.758 327.333 310.277ZM326.242 310.644C326.034 310.284 325.776 310.021 325.469 309.857C325.158 309.686 324.825 309.614 324.472 309.643C324.122 309.66 323.781 309.765 323.448 309.957C322.97 310.233 322.649 310.621 322.486 311.122C322.329 311.619 322.383 312.151 322.646 312.72L326.242 310.644ZM332.768 311.352C332.331 311.604 331.898 311.757 331.467 311.812C331.033 311.859 330.639 311.809 330.286 311.662C329.929 311.508 329.641 311.264 329.42 310.929L330.397 310.365C330.588 310.633 330.854 310.789 331.194 310.833C331.54 310.874 331.907 310.782 332.295 310.558C332.656 310.35 332.894 310.106 333.009 309.827C333.125 309.547 333.113 309.286 332.973 309.044C332.829 308.794 332.612 308.675 332.323 308.685C332.029 308.688 331.616 308.765 331.084 308.915C330.597 309.049 330.187 309.138 329.853 309.183C329.521 309.217 329.195 309.179 328.873 309.07C328.554 308.949 328.288 308.705 328.076 308.338C327.908 308.047 327.841 307.73 327.874 307.388C327.907 307.045 328.043 306.713 328.282 306.39C328.516 306.061 328.838 305.778 329.247 305.542C329.877 305.178 330.479 305.043 331.051 305.138C331.623 305.233 332.082 305.549 332.43 306.087L331.484 306.633C331.292 306.347 331.032 306.178 330.707 306.126C330.388 306.07 330.045 306.148 329.678 306.36C329.338 306.556 329.11 306.785 328.993 307.046C328.876 307.308 328.886 307.556 329.022 307.792C329.13 307.979 329.279 308.101 329.468 308.158C329.661 308.203 329.87 308.212 330.094 308.184C330.321 308.146 330.623 308.077 331.001 307.98C331.474 307.854 331.87 307.773 332.19 307.736C332.507 307.692 332.817 307.725 333.121 307.836C333.432 307.943 333.691 308.167 333.898 308.51C334.078 308.822 334.154 309.152 334.124 309.502C334.095 309.851 333.963 310.191 333.728 310.52C333.497 310.839 333.176 311.116 332.768 311.352Z" fill="#232D42"/>
<circle cx="250.833" cy="353.706" r="4" transform="rotate(-30 250.833 353.706)" fill="#DFD5FE"/>
<path d="M279.184 359.699C279.426 360.12 279.546 360.579 279.542 361.076C279.542 361.562 279.402 362.047 279.122 362.532C278.845 363.004 278.435 363.424 277.892 363.791L278.459 364.773L277.684 365.221L277.11 364.227C276.259 364.621 275.469 364.754 274.737 364.626C274.002 364.491 273.42 364.072 272.994 363.37L274.812 362.32C275.197 362.874 275.699 363.053 276.319 362.857L274.982 360.541C274.316 360.732 273.763 360.857 273.323 360.917C272.883 360.976 272.441 360.919 271.996 360.745C271.55 360.571 271.167 360.206 270.845 359.648C270.439 358.945 270.358 358.226 270.602 357.492C270.855 356.754 271.363 356.121 272.126 355.594L271.559 354.612L272.334 354.164L272.901 355.146C273.715 354.763 274.468 354.64 275.162 354.779C275.865 354.912 276.449 355.318 276.917 355.997L275.086 357.054C274.926 356.833 274.725 356.68 274.481 356.594C274.241 356.496 273.983 356.478 273.706 356.541L275.029 358.832C275.724 358.636 276.288 358.51 276.719 358.455C277.154 358.387 277.594 358.44 278.04 358.614C278.48 358.78 278.862 359.142 279.184 359.699ZM272.566 358.541C272.72 358.808 272.927 358.979 273.186 359.056C273.441 359.124 273.753 359.122 274.121 359.05L272.91 356.952C272.642 357.161 272.474 357.403 272.407 357.679C272.34 357.954 272.393 358.242 272.566 358.541ZM277.108 362.433C277.383 362.199 277.549 361.936 277.607 361.644C277.673 361.348 277.626 361.062 277.468 360.787C277.314 360.52 277.105 360.355 276.842 360.291C276.579 360.228 276.259 360.234 275.883 360.311L277.108 362.433ZM283.202 357.315C283.472 357.633 283.776 357.824 284.114 357.887C284.456 357.938 284.821 357.851 285.209 357.627C285.71 357.338 285.955 356.922 285.943 356.379C285.927 355.828 285.634 355.059 285.065 354.073C285.028 354.439 284.882 354.793 284.626 355.134C284.379 355.471 284.061 355.751 283.673 355.975C283.156 356.274 282.627 356.44 282.085 356.472C281.547 356.492 281.035 356.362 280.55 356.081C280.06 355.793 279.64 355.346 279.29 354.74C278.772 353.842 278.628 352.977 278.858 352.144C279.084 351.302 279.657 350.615 280.579 350.083C281.726 349.421 282.747 349.322 283.641 349.787C284.542 350.247 285.42 351.217 286.274 352.696C286.881 353.747 287.285 354.661 287.486 355.439C287.696 356.213 287.678 356.902 287.434 357.506C287.199 358.106 286.701 358.625 285.941 359.063C285.343 359.409 284.768 359.589 284.217 359.606C283.662 359.614 283.163 359.498 282.722 359.257C282.285 359.003 281.919 358.659 281.626 358.225L283.202 357.315ZM283.227 354.39C283.647 354.148 283.904 353.827 283.997 353.428C284.09 353.03 284.011 352.612 283.759 352.176C283.484 351.699 283.142 351.406 282.734 351.296C282.329 351.174 281.909 351.239 281.472 351.491C281.036 351.743 280.768 352.081 280.668 352.505C280.571 352.917 280.651 353.345 280.908 353.789C281.155 354.218 281.479 354.499 281.881 354.634C282.285 354.756 282.734 354.675 283.227 354.39ZM291.397 347.054C291.12 346.762 290.832 346.589 290.532 346.535C290.24 346.478 289.908 346.556 289.536 346.771C288.978 347.093 288.697 347.557 288.692 348.164C288.69 348.758 288.976 349.562 289.551 350.577C289.559 350.142 289.697 349.728 289.966 349.336C290.231 348.935 290.581 348.609 291.018 348.357C291.543 348.053 292.073 347.898 292.608 347.891C293.143 347.884 293.649 348.034 294.128 348.339C294.601 348.637 295.013 349.089 295.363 349.695C295.694 350.269 295.873 350.85 295.9 351.438C295.931 352.013 295.796 352.555 295.496 353.062C295.196 353.569 294.739 354 294.125 354.355C293.284 354.84 292.514 355.037 291.814 354.945C291.123 354.848 290.489 354.525 289.912 353.974C289.339 353.41 288.77 352.64 288.205 351.662C287.351 350.182 286.962 348.92 287.037 347.874C287.108 346.82 287.693 345.976 288.792 345.342C289.641 344.852 290.432 344.702 291.167 344.892C291.902 345.082 292.504 345.499 292.973 346.144L291.397 347.054ZM291.435 349.975C291.006 350.222 290.719 350.555 290.573 350.974C290.426 351.392 290.491 351.84 290.766 352.317C291.041 352.794 291.392 353.093 291.817 353.214C292.251 353.33 292.714 353.245 293.207 352.961C293.643 352.709 293.91 352.377 294.007 351.966C294.111 351.55 294.033 351.115 293.771 350.663C293.501 350.194 293.161 349.894 292.752 349.764C292.35 349.629 291.911 349.7 291.435 349.975ZM298.207 349.411C298.61 348.317 298.918 347.422 299.131 346.728C299.34 346.025 299.462 345.351 299.499 344.705C299.535 344.059 299.423 343.509 299.162 343.057C298.924 342.644 298.64 342.377 298.311 342.255C297.981 342.132 297.615 342.188 297.21 342.421C296.806 342.654 296.574 342.971 296.515 343.372C296.451 343.765 296.55 344.198 296.812 344.672L295.164 345.624C294.636 344.635 294.498 343.734 294.75 342.92C295.011 342.101 295.561 341.449 296.402 340.964C297.323 340.432 298.173 340.27 298.95 340.479C299.724 340.679 300.341 341.179 300.803 341.98C301.167 342.61 301.345 343.31 301.337 344.08C301.329 344.85 301.23 345.575 301.041 346.255C300.847 346.928 300.571 347.766 300.213 348.77L303.79 346.705L304.602 348.112L298.613 351.57L297.885 350.309L298.207 349.411ZM307.117 346.934C306.81 347.111 306.502 347.166 306.193 347.096C305.887 347.014 305.652 346.832 305.489 346.549C305.325 346.266 305.287 345.976 305.374 345.678C305.464 345.367 305.662 345.123 305.969 344.946C306.268 344.773 306.571 344.728 306.877 344.81C307.178 344.884 307.411 345.062 307.574 345.345C307.737 345.628 307.778 345.922 307.696 346.228C307.609 346.526 307.416 346.761 307.117 346.934ZM305.918 338.832C305.492 338.001 305.416 337.215 305.689 336.475C305.966 335.722 306.537 335.096 307.402 334.597C307.992 334.256 308.558 334.07 309.099 334.037C309.636 333.997 310.112 334.094 310.528 334.328C310.947 334.55 311.285 334.883 311.541 335.327C311.835 335.836 311.952 336.346 311.89 336.855C311.832 337.352 311.656 337.766 311.363 338.098L311.391 338.146C311.943 338.021 312.457 338.07 312.93 338.292C313.411 338.51 313.82 338.91 314.156 339.492C314.436 339.977 314.572 340.475 314.565 340.985C314.567 341.491 314.412 341.979 314.101 342.449C313.794 342.907 313.338 343.311 312.731 343.661C311.818 344.188 310.941 344.387 310.102 344.257C309.262 344.128 308.567 343.624 308.016 342.746L309.665 341.794C309.91 342.18 310.228 342.423 310.618 342.52C311.012 342.605 311.432 342.52 311.876 342.263C312.288 342.025 312.538 341.73 312.626 341.378C312.717 341.012 312.657 340.648 312.447 340.284C312.167 339.799 311.813 339.54 311.385 339.508C310.956 339.475 310.419 339.645 309.772 340.018L309.42 340.221L308.615 338.827L308.967 338.624C310.115 337.961 310.467 337.246 310.024 336.478C309.823 336.131 309.561 335.921 309.239 335.848C308.925 335.771 308.574 335.844 308.186 336.068C307.806 336.287 307.572 336.563 307.483 336.894C307.398 337.213 307.43 337.539 307.58 337.873L305.918 338.832ZM317.821 337.327C318.091 337.645 318.396 337.836 318.734 337.899C319.076 337.95 319.441 337.863 319.829 337.639C320.33 337.35 320.574 336.934 320.563 336.391C320.546 335.84 320.254 335.071 319.684 334.085C319.648 334.451 319.502 334.805 319.246 335.147C318.999 335.483 318.681 335.764 318.293 335.988C317.776 336.286 317.246 336.452 316.705 336.485C316.166 336.504 315.655 336.374 315.17 336.094C314.68 335.805 314.26 335.358 313.91 334.752C313.392 333.855 313.248 332.989 313.478 332.156C313.704 331.314 314.277 330.628 315.198 330.096C316.346 329.433 317.367 329.334 318.26 329.799C319.162 330.259 320.04 331.229 320.894 332.708C321.5 333.759 321.904 334.673 322.106 335.452C322.315 336.225 322.298 336.914 322.054 337.518C321.818 338.118 321.321 338.637 320.561 339.076C319.963 339.421 319.388 339.602 318.837 339.618C318.281 339.626 317.783 339.51 317.342 339.269C316.905 339.015 316.539 338.671 316.245 338.237L317.821 337.327ZM317.847 334.403C318.267 334.16 318.524 333.839 318.617 333.441C318.71 333.042 318.631 332.624 318.379 332.188C318.103 331.711 317.762 331.418 317.354 331.309C316.949 331.187 316.529 331.252 316.092 331.504C315.656 331.756 315.387 332.094 315.287 332.518C315.191 332.929 315.271 333.357 315.527 333.802C315.775 334.23 316.099 334.512 316.5 334.647C316.905 334.769 317.354 334.687 317.847 334.403Z" fill="#232D42"/>
</g>
<g filter="url(#filter2_d_16_1366)">
<rect x="337" y="200.498" width="274.996" height="197.82" rx="20" transform="rotate(-30 337 200.498)" fill="white"/>
<rect x="337.683" y="200.681" width="273.996" height="196.82" rx="19.5" transform="rotate(-30 337.683 200.681)" stroke="#F1ECFF"/>
</g>
<path d="M429.753 303.888C439.923 298.016 431.306 283.091 441.578 277.161C451.747 271.289 448.457 265.59 458.728 259.66C468.898 253.788 456.805 232.843 467.077 226.913C477.247 221.042 483.396 231.692 493.667 225.762C503.837 219.891 515.23 239.624 525.4 233.753C535.671 227.823 518.232 197.617 528.401 191.745C538.673 185.815 557.86 219.049 568.03 213.177C578.302 207.247 576.06 203.364 586.23 197.493C596.501 191.563 603.452 203.603 613.622 197.731" stroke="#7951F9" stroke-width="2"/>
<path d="M429.753 303.888C439.923 298.016 433.519 286.925 443.791 280.994C453.96 275.123 459.571 284.841 469.843 278.911C480.012 273.04 478.122 269.765 488.393 263.835C498.563 257.963 490.838 244.583 501.109 238.653C511.279 232.781 502.354 217.323 512.524 211.452C522.795 205.521 534.769 226.261 544.939 220.39C555.21 214.459 551.002 207.171 561.172 201.299C571.443 195.369 575.082 201.672 585.252 195.8C595.524 189.87 603.452 203.603 613.622 197.731" stroke="#F25368" stroke-width="2"/>
<path d="M432.718 302.176C433.204 303.018 432.916 303.987 432.228 304.384C431.541 304.78 430.558 304.545 430.072 303.704C429.586 302.862 429.874 301.894 430.562 301.497C431.249 301.1 432.232 301.335 432.718 302.176Z" fill="white" stroke="#1F78B4" stroke-width="2"/>
<circle cx="442.869" cy="276.108" r="1.5" transform="rotate(-30 442.869 276.108)" fill="white" stroke="#7951F9" stroke-width="2"/>
<circle cx="460.33" cy="258.329" r="1.5" transform="rotate(-30 460.33 258.329)" fill="white" stroke="#7951F9" stroke-width="2"/>
<circle cx="468.577" cy="225.855" r="1.5" transform="rotate(-30 468.577 225.855)" fill="white" stroke="#7951F9" stroke-width="2"/>
<circle cx="495.372" cy="224.241" r="1.5" transform="rotate(-30 495.372 224.241)" fill="white" stroke="#7951F9" stroke-width="2"/>
<path d="M528.383 231.548C528.869 232.389 528.581 233.358 527.893 233.755C527.206 234.152 526.223 233.917 525.737 233.076C525.251 232.234 525.539 231.265 526.227 230.868C526.914 230.471 527.897 230.707 528.383 231.548Z" fill="white" stroke="#7951F9" stroke-width="2"/>
<circle cx="529.867" cy="190.469" r="1.5" transform="rotate(-30 529.867 190.469)" fill="white" stroke="#7951F9" stroke-width="2"/>
<circle cx="569.662" cy="211.373" r="1.5" transform="rotate(-30 569.662 211.373)" fill="white" stroke="#7951F9" stroke-width="2"/>
<path d="M589.339 195.585C589.825 196.427 589.537 197.395 588.849 197.792C588.162 198.189 587.179 197.954 586.693 197.113C586.207 196.271 586.495 195.302 587.183 194.905C587.87 194.509 588.853 194.744 589.339 195.585Z" fill="white" stroke="#7951F9" stroke-width="2"/>
<path d="M617.134 195.704C617.62 196.545 617.332 197.514 616.644 197.911C615.957 198.308 614.974 198.073 614.488 197.231C614.002 196.39 614.29 195.421 614.977 195.024C615.665 194.627 616.648 194.862 617.134 195.704Z" fill="white" stroke="#7951F9" stroke-width="2"/>
<circle cx="431.288" cy="302.81" r="1.5" transform="rotate(-30 431.288 302.81)" fill="white" stroke="#F25368" stroke-width="2"/>
<circle cx="444.869" cy="279.573" r="1.5" transform="rotate(-30 444.869 279.573)" fill="white" stroke="#F25368" stroke-width="2"/>
<circle cx="471.33" cy="277.382" r="1.5" transform="rotate(-30 471.33 277.382)" fill="white" stroke="#F25368" stroke-width="2"/>
<circle cx="489.577" cy="262.228" r="1.5" transform="rotate(-30 489.577 262.228)" fill="white" stroke="#F25368" stroke-width="2"/>
<circle cx="502.705" cy="236.943" r="1.5" transform="rotate(-30 502.705 236.943)" fill="white" stroke="#F25368" stroke-width="2"/>
<circle cx="513.953" cy="209.665" r="1.5" transform="rotate(-30 513.953 209.665)" fill="white" stroke="#F25368" stroke-width="2"/>
<circle cx="546.2" cy="218.759" r="1.5" transform="rotate(-30 546.2 218.759)" fill="white" stroke="#F25368" stroke-width="2"/>
<circle cx="562.995" cy="199.825" r="1.5" transform="rotate(-30 562.995 199.825)" fill="white" stroke="#F25368" stroke-width="2"/>
<circle cx="586.909" cy="194.486" r="1.5" transform="rotate(-30 586.909 194.486)" fill="white" stroke="#F25368" stroke-width="2"/>
<circle cx="615.704" cy="196.337" r="1.5" transform="rotate(-30 615.704 196.337)" fill="white" stroke="#F25368" stroke-width="2"/>
<g filter="url(#filter3_d_16_1366)">
<path d="M411.945 262.306C410.84 260.393 411.496 257.947 413.409 256.842L441.122 240.842C443.035 239.738 445.481 240.393 446.586 242.306L453.386 254.084C454.49 255.997 453.835 258.444 451.922 259.548L443.014 264.691L440.765 272.225L433.117 270.406L424.209 275.548C422.296 276.653 419.849 275.998 418.745 274.084L411.945 262.306Z" fill="#F7F4FD"/>
<path d="M442.764 264.258L442.592 264.358L442.535 264.548L440.421 271.629L433.232 269.919L433.039 269.873L432.867 269.973L423.959 275.115C422.285 276.082 420.144 275.508 419.178 273.834L412.378 262.056C411.411 260.382 411.985 258.242 413.659 257.275L441.372 241.275C443.046 240.309 445.186 240.882 446.153 242.556L452.953 254.334C453.919 256.008 453.346 258.149 451.672 259.115L442.764 264.258Z" stroke="#E8E0FF"/>
</g>
<path d="M429.494 262.035C429.661 262.323 429.745 262.636 429.748 262.974C429.756 263.308 429.671 263.641 429.494 263.975C429.323 264.304 429.059 264.595 428.704 264.846L429.109 265.548L428.546 265.873L428.141 265.171C427.568 265.433 427.031 265.516 426.53 265.42C426.028 265.325 425.641 265.041 425.368 264.567L426.424 263.957C426.571 264.172 426.752 264.318 426.966 264.395C427.176 264.466 427.411 264.453 427.671 264.357L426.571 262.452C426.128 262.577 425.756 262.661 425.457 262.703C425.155 262.739 424.854 262.697 424.554 262.578C424.26 262.455 424.003 262.203 423.783 261.822C423.506 261.343 423.445 260.851 423.6 260.345C423.751 259.835 424.083 259.396 424.596 259.031L424.191 258.33L424.754 258.005L425.159 258.706C425.694 258.459 426.194 258.386 426.66 258.486C427.129 258.577 427.521 258.851 427.838 259.307L426.782 259.917C426.661 259.748 426.5 259.629 426.299 259.561C426.094 259.486 425.876 259.482 425.644 259.546L426.724 261.417C427.164 261.286 427.536 261.202 427.838 261.166C428.137 261.124 428.434 261.165 428.728 261.288C429.019 261.405 429.274 261.654 429.494 262.035ZM424.757 261.19C424.894 261.427 425.07 261.571 425.285 261.624C425.506 261.674 425.77 261.664 426.076 261.595L425.066 259.845C424.835 260.017 424.687 260.222 424.624 260.459C424.566 260.692 424.61 260.936 424.757 261.19ZM428.234 264.032C428.465 263.845 428.606 263.629 428.657 263.384C428.704 263.133 428.661 262.892 428.528 262.662C428.395 262.431 428.219 262.293 428.002 262.25C427.786 262.197 427.526 262.205 427.219 262.274L428.234 264.032ZM432.042 261.06C432.32 260.261 432.529 259.617 432.67 259.127C432.813 258.629 432.895 258.15 432.915 257.692C432.935 257.234 432.849 256.838 432.656 256.503C432.456 256.156 432.215 255.933 431.934 255.834C431.659 255.731 431.346 255.781 430.994 255.984C430.653 256.181 430.451 256.444 430.387 256.773C430.326 257.094 430.394 257.439 430.592 257.809L429.64 258.359C429.277 257.691 429.183 257.075 429.359 256.512C429.536 255.94 429.917 255.486 430.5 255.149C431.129 254.786 431.72 254.676 432.272 254.819C432.83 254.959 433.276 255.317 433.609 255.894C433.849 256.31 433.974 256.773 433.984 257.283C433.996 257.784 433.943 258.273 433.825 258.749C433.71 259.216 433.542 259.778 433.322 260.437L433.132 261.008L435.877 259.423L436.352 260.246L432.144 262.676L431.729 261.957L432.042 261.06ZM438.531 251.817L435.63 253.492L436.625 255.215C436.653 254.984 436.754 254.745 436.927 254.498C437.106 254.249 437.332 254.045 437.603 253.889C438.088 253.609 438.541 253.486 438.961 253.521C439.387 253.552 439.755 253.689 440.065 253.934C440.381 254.175 440.641 254.471 440.844 254.823C441.091 255.251 441.227 255.68 441.253 256.111C441.282 256.534 441.186 256.935 440.967 257.316C440.754 257.693 440.41 258.018 439.937 258.292C439.308 258.655 438.713 258.791 438.152 258.699C437.59 258.607 437.124 258.326 436.752 257.856L437.714 257.301C437.934 257.535 438.2 257.67 438.513 257.705C438.822 257.734 439.142 257.654 439.471 257.464C439.881 257.227 440.115 256.926 440.174 256.562C440.238 256.193 440.152 255.804 439.915 255.394C439.675 254.979 439.388 254.721 439.054 254.622C438.716 254.516 438.345 254.581 437.941 254.814C437.658 254.977 437.46 255.188 437.347 255.445C437.236 255.694 437.208 255.964 437.261 256.257L436.326 256.797L434.221 253.151L438.031 250.951L438.531 251.817Z" fill="#232D42"/>
<path d="M388.993 207.477L391.539 222.127L388.594 223.827L377.18 214.297L379.778 212.797L388.654 220.49L386.412 208.967L388.993 207.477ZM392.456 207.278C392.029 207.525 391.594 207.599 391.152 207.5C390.715 207.383 390.38 207.122 390.147 206.718C389.913 206.314 389.858 205.899 389.982 205.474C390.111 205.03 390.389 204.685 390.816 204.438C391.243 204.191 391.676 204.126 392.113 204.244C392.555 204.343 392.892 204.594 393.126 204.998C393.359 205.402 393.411 205.826 393.283 206.27C393.159 206.696 392.883 207.032 392.456 207.278ZM394.311 207.732L399.851 217.327L397.426 218.727L391.886 209.132L394.311 207.732ZM408.277 205.788C408.477 206.135 408.634 206.46 408.748 206.764L401.733 210.814C402.191 211.473 402.747 211.876 403.4 212.022C404.054 212.168 404.693 212.061 405.317 211.701C406.217 211.181 406.635 210.424 406.569 209.43L409.185 207.92C409.441 209.004 409.35 210.073 408.911 211.127C408.466 212.169 407.672 213.02 406.529 213.68C405.605 214.213 404.657 214.491 403.684 214.514C402.717 214.518 401.809 214.265 400.96 213.754C400.122 213.237 399.42 212.488 398.854 211.506C398.28 210.513 397.979 209.525 397.95 208.541C397.921 207.557 398.153 206.653 398.647 205.829C399.141 205.005 399.862 204.319 400.809 203.773C401.721 203.246 402.648 202.972 403.591 202.951C404.545 202.924 405.428 203.161 406.241 203.662C407.058 204.144 407.737 204.853 408.277 205.788ZM405.366 206.546C404.994 205.929 404.482 205.562 403.83 205.446C403.171 205.318 402.524 205.438 401.889 205.804C401.289 206.151 400.887 206.629 400.685 207.239C400.488 207.83 400.529 208.476 400.81 209.176L405.366 206.546ZM420.699 192.497L423.433 203.712L420.818 205.222L415.199 199.529L417.319 207.242L414.686 208.762L406.323 200.797L408.783 199.377L414.7 205.706L412.316 197.337L414.88 195.857L420.891 202.108L418.378 193.837L420.699 192.497ZM431.313 199.37C430.528 199.824 429.744 200.092 428.96 200.175C428.17 200.246 427.45 200.146 426.801 199.874C426.163 199.596 425.656 199.172 425.282 198.604L427.724 197.194C427.983 197.536 428.339 197.739 428.791 197.802C429.254 197.857 429.722 197.749 430.196 197.475C430.658 197.209 430.962 196.91 431.11 196.578C431.269 196.24 431.265 195.927 431.098 195.638C430.918 195.326 430.623 195.189 430.213 195.225C429.808 195.243 429.206 195.36 428.406 195.576C427.59 195.816 426.898 195.977 426.33 196.059C425.773 196.134 425.217 196.078 424.662 195.89C424.118 195.696 423.66 195.275 423.287 194.628C422.98 194.097 422.85 193.526 422.897 192.913C422.956 192.295 423.194 191.695 423.613 191.114C424.044 190.527 424.646 190.01 425.42 189.563C426.563 188.903 427.642 188.665 428.657 188.849C429.665 189.022 430.483 189.573 431.112 190.503L428.791 191.843C428.537 191.482 428.202 191.275 427.787 191.222C427.376 191.151 426.934 191.252 426.461 191.526C426.022 191.779 425.728 192.057 425.579 192.358C425.441 192.653 425.456 192.945 425.622 193.234C425.809 193.557 426.114 193.712 426.537 193.699C426.954 193.673 427.553 193.551 428.334 193.331C429.127 193.104 429.802 192.953 430.359 192.878C430.916 192.802 431.469 192.868 432.019 193.074C432.574 193.261 433.041 193.67 433.419 194.298C433.739 194.852 433.87 195.439 433.811 196.058C433.764 196.67 433.526 197.269 433.095 197.857C432.669 198.426 432.075 198.93 431.313 199.37Z" fill="#232D42"/>
<rect opacity="0.2" x="536.013" y="116.198" width="31" height="31" rx="3.5" transform="rotate(-30 536.013 116.198)" stroke="#232D42"/>
<path fill-rule="evenodd" clip-rule="evenodd" d="M550.323 121.984C549.771 121.028 550.099 119.805 551.055 119.252L557.983 115.252C558.94 114.7 560.163 115.028 560.716 115.984L564.716 122.913C565.268 123.869 564.94 125.092 563.983 125.645L557.055 129.645C556.099 130.197 554.876 129.869 554.323 128.913L550.323 121.984Z" stroke="#232D42" stroke-width="2" stroke-linecap="round" stroke-linejoin="round"/>
<path d="M556.162 114.764L557.495 117.074" stroke="#232D42" stroke-width="2" stroke-linecap="round" stroke-linejoin="round"/>
<path d="M551.543 117.431L552.877 119.74" stroke="#232D42" stroke-width="2" stroke-linecap="round" stroke-linejoin="round"/>
<path d="M551.323 123.716L561.716 117.716" stroke="#232D42" stroke-width="2" stroke-linecap="round" stroke-linejoin="round"/>
<path opacity="0.5" d="M531.026 285.966L534.511 292.002L533.723 292.457L530.238 286.421L531.026 285.966ZM534.796 286.375L536.411 289.172C536.545 289.403 536.689 289.54 536.844 289.581C536.995 289.617 537.192 289.565 537.435 289.425L538.015 289.09L538.4 289.756L537.69 290.166C537.251 290.42 536.864 290.509 536.527 290.433C536.191 290.358 535.89 290.089 535.623 289.627L534.008 286.83L533.393 287.185L533.018 286.536L533.633 286.181L532.943 284.986L533.731 284.531L534.421 285.726L535.66 285.011L536.035 285.66L534.796 286.375ZM542.556 283.95C542.643 284.101 542.726 284.264 542.805 284.442L539.012 286.632C539.311 287.083 539.681 287.358 540.123 287.457C540.568 287.546 540.998 287.471 541.414 287.231C541.754 287.035 541.992 286.793 542.127 286.507C542.265 286.212 542.303 285.906 542.242 285.587L543.091 285.097C543.227 285.626 543.188 286.145 542.974 286.654C542.756 287.157 542.364 287.571 541.799 287.898C541.348 288.158 540.886 288.29 540.411 288.295C539.942 288.296 539.5 288.171 539.085 287.918C538.666 287.659 538.315 287.284 538.032 286.794C537.748 286.303 537.598 285.816 537.581 285.333C537.564 284.85 537.675 284.409 537.914 284.01C538.155 283.601 538.507 283.263 538.969 282.996C539.419 282.736 539.874 282.605 540.334 282.601C540.793 282.597 541.216 282.715 541.6 282.955C541.988 283.186 542.306 283.517 542.556 283.95ZM541.647 284.256C541.474 283.956 541.259 283.737 541.003 283.6C540.744 283.457 540.467 283.398 540.172 283.421C539.881 283.436 539.596 283.523 539.319 283.683C538.921 283.913 538.653 284.237 538.517 284.654C538.387 285.068 538.431 285.512 538.651 285.986L541.647 284.256ZM548.335 277.577C548.705 277.364 549.079 277.252 549.457 277.241C549.833 277.224 550.192 277.321 550.536 277.53C550.881 277.74 551.179 278.064 551.433 278.502L553.048 281.3L552.268 281.75L550.718 279.065C550.445 278.592 550.118 278.299 549.738 278.187C549.36 278.067 548.973 278.121 548.574 278.351C548.164 278.588 547.915 278.909 547.826 279.315C547.733 279.715 547.83 280.163 548.117 280.659L549.627 283.275L548.847 283.725L547.297 281.04C547.024 280.567 546.697 280.274 546.317 280.162C545.94 280.042 545.552 280.096 545.153 280.326C544.743 280.563 544.494 280.884 544.405 281.29C544.312 281.69 544.409 282.138 544.696 282.634L546.206 285.25L545.418 285.705L542.678 280.959L543.466 280.504L543.861 281.188C543.874 280.85 543.971 280.539 544.155 280.256C544.343 279.97 544.597 279.736 544.914 279.552C545.313 279.322 545.716 279.208 546.126 279.211C546.535 279.213 546.915 279.344 547.265 279.604C547.204 279.192 547.274 278.806 547.473 278.444C547.672 278.083 547.96 277.794 548.335 277.577ZM557.167 273.61L557.738 275.358L558.933 274.668L559.333 275.361L557.991 276.136L558.619 278.083L557.865 278.518L557.237 276.571L555.419 277.621L556.046 279.568L555.293 280.003L554.665 278.056L553.306 278.841L552.906 278.148L554.413 277.278L553.842 275.53L552.499 276.305L552.099 275.612L553.589 274.752L552.961 272.805L553.715 272.37L554.342 274.317L556.161 273.267L555.533 271.32L556.287 270.885L556.914 272.832L558.118 272.137L558.518 272.83L557.167 273.61ZM556.414 274.045L554.595 275.095L555.166 276.843L556.985 275.793L556.414 274.045ZM561.716 275.452C562.109 274.44 562.406 273.626 562.605 273.011C562.8 272.39 562.921 271.792 562.968 271.219C563.016 270.637 562.926 270.146 562.696 269.748C562.479 269.373 562.217 269.132 561.908 269.025C561.603 268.909 561.248 268.967 560.844 269.201C560.451 269.427 560.217 269.728 560.141 270.103C560.067 270.469 560.14 270.862 560.359 271.282L559.597 271.722C559.247 271.062 559.155 270.449 559.321 269.883C559.487 269.318 559.862 268.867 560.445 268.53C561.04 268.187 561.605 268.08 562.142 268.209C562.684 268.334 563.122 268.686 563.455 269.263C563.732 269.743 563.857 270.294 563.832 270.916C563.809 271.53 563.716 272.115 563.552 272.671C563.385 273.222 563.15 273.889 562.848 274.672L565.827 272.952L566.207 273.61L562.041 276.015L561.716 275.452Z" fill="#232D42"/>
<circle cx="519.263" cy="296.186" r="4" transform="rotate(-30 519.263 296.186)" fill="#F25368"/>
<path opacity="0.5" d="M464.342 324.466L467.827 330.502L467.039 330.957L463.554 324.921L464.342 324.466ZM468.113 324.875L469.728 327.672C469.861 327.903 470.005 328.04 470.16 328.081C470.312 328.117 470.509 328.065 470.751 327.925L471.331 327.59L471.716 328.256L471.006 328.666C470.567 328.92 470.18 329.009 469.844 328.933C469.508 328.858 469.206 328.589 468.94 328.127L467.325 325.33L466.71 325.685L466.335 325.036L466.95 324.681L466.26 323.486L467.048 323.031L467.738 324.226L468.976 323.511L469.351 324.16L468.113 324.875ZM475.873 322.45C475.959 322.601 476.042 322.764 476.122 322.942L472.328 325.132C472.627 325.583 472.998 325.858 473.44 325.957C473.884 326.046 474.314 325.971 474.73 325.731C475.071 325.535 475.309 325.293 475.444 325.007C475.581 324.712 475.62 324.406 475.559 324.087L476.407 323.597C476.544 324.126 476.505 324.645 476.29 325.154C476.073 325.657 475.681 326.071 475.115 326.398C474.665 326.658 474.202 326.79 473.728 326.795C473.259 326.796 472.817 326.671 472.401 326.418C471.982 326.159 471.631 325.784 471.348 325.294C471.065 324.803 470.915 324.316 470.898 323.833C470.88 323.35 470.991 322.909 471.23 322.51C471.472 322.101 471.823 321.763 472.285 321.496C472.735 321.236 473.19 321.105 473.65 321.101C474.11 321.097 474.532 321.215 474.917 321.455C475.304 321.686 475.623 322.017 475.873 322.45ZM474.964 322.756C474.79 322.456 474.576 322.237 474.319 322.1C474.06 321.957 473.783 321.898 473.489 321.921C473.197 321.936 472.912 322.023 472.635 322.183C472.237 322.413 471.97 322.737 471.833 323.154C471.703 323.568 471.748 324.012 471.967 324.486L474.964 322.756ZM481.651 316.077C482.021 315.864 482.395 315.752 482.774 315.741C483.149 315.724 483.509 315.821 483.853 316.03C484.197 316.24 484.496 316.564 484.749 317.002L486.364 319.8L485.585 320.25L484.035 317.565C483.761 317.092 483.435 316.799 483.055 316.687C482.677 316.567 482.289 316.621 481.891 316.851C481.481 317.088 481.231 317.409 481.142 317.815C481.049 318.215 481.147 318.663 481.433 319.159L482.943 321.775L482.164 322.225L480.614 319.54C480.34 319.067 480.014 318.774 479.634 318.662C479.256 318.542 478.868 318.596 478.47 318.826C478.06 319.063 477.81 319.384 477.721 319.79C477.629 320.19 477.726 320.638 478.012 321.134L479.522 323.75L478.734 324.205L475.994 319.459L476.782 319.004L477.177 319.688C477.19 319.35 477.288 319.039 477.471 318.756C477.66 318.47 477.913 318.236 478.231 318.052C478.629 317.822 479.033 317.708 479.442 317.711C479.851 317.713 480.231 317.844 480.581 318.104C480.521 317.692 480.59 317.306 480.79 316.944C480.989 316.583 481.276 316.294 481.651 316.077ZM490.484 312.11L491.055 313.858L492.25 313.168L492.65 313.861L491.307 314.636L491.935 316.583L491.181 317.018L490.554 315.071L488.735 316.121L489.363 318.068L488.609 318.503L487.982 316.556L486.622 317.341L486.222 316.648L487.729 315.778L487.158 314.03L485.816 314.805L485.416 314.112L486.905 313.252L486.278 311.305L487.031 310.87L487.659 312.817L489.477 311.767L488.85 309.82L489.603 309.385L490.231 311.332L491.435 310.637L491.835 311.33L490.484 312.11ZM489.73 312.545L487.912 313.595L488.482 315.343L490.301 314.293L489.73 312.545ZM492.085 309.106L491.67 308.388L493.298 307.448L496.913 313.709L496.116 314.169L492.916 308.626L492.085 309.106Z" fill="#232D42"/>
<circle cx="451.713" cy="335.186" r="4" transform="rotate(-30 451.713 335.186)" fill="#7951F9"/>
<defs>
<filter id="filter0_d_16_1366" x="-116.683" y="85.5083" width="582.43" height="554.182" filterUnits="userSpaceOnUse" color-interpolation-filters="sRGB">
<feFlood flood-opacity="0" result="BackgroundImageFix"/>
<feColorMatrix in="SourceAlpha" type="matrix" values="0 0 0 0 0 0 0 0 0 0 0 0 0 0 0 0 0 0 127 0" result="hardAlpha"/>
<feOffset dx="-40" dy="40"/>
<feGaussianBlur stdDeviation="65"/>
<feColorMatrix type="matrix" values="0 0 0 0 0.62862 0 0 0 0 0.557604 0 0 0 0 0.841667 0 0 0 0.18 0"/>
<feBlend mode="normal" in2="BackgroundImageFix" result="effect1_dropShadow_16_1366"/>
<feBlend mode="normal" in="SourceGraphic" in2="effect1_dropShadow_16_1366" result="shape"/>
</filter>
<filter id="filter1_d_16_1366" x="210.804" y="218.387" width="70.1104" height="62.936" filterUnits="userSpaceOnUse" color-interpolation-filters="sRGB">
<feFlood flood-opacity="0" result="BackgroundImageFix"/>
<feColorMatrix in="SourceAlpha" type="matrix" values="0 0 0 0 0 0 0 0 0 0 0 0 0 0 0 0 0 0 127 0" result="hardAlpha"/>
<feOffset dy="6"/>
<feGaussianBlur stdDeviation="5"/>
<feColorMatrix type="matrix" values="0 0 0 0 0.863571 0 0 0 0 0.82875 0 0 0 0 0.975 0 0 0 0.4 0"/>
<feBlend mode="normal" in2="BackgroundImageFix" result="effect1_dropShadow_16_1366"/>
<feBlend mode="normal" in="SourceGraphic" in2="effect1_dropShadow_16_1366" result="shape"/>
</filter>
<filter id="filter2_d_16_1366" x="154.317" y="0.316895" width="582.43" height="554.182" filterUnits="userSpaceOnUse" color-interpolation-filters="sRGB">
<feFlood flood-opacity="0" result="BackgroundImageFix"/>
<feColorMatrix in="SourceAlpha" type="matrix" values="0 0 0 0 0 0 0 0 0 0 0 0 0 0 0 0 0 0 127 0" result="hardAlpha"/>
<feOffset dx="-60" dy="60"/>
<feGaussianBlur stdDeviation="65"/>
<feColorMatrix type="matrix" values="0 0 0 0 0.62862 0 0 0 0 0.557604 0 0 0 0 0.841667 0 0 0 0.3 0"/>
<feBlend mode="normal" in2="BackgroundImageFix" result="effect1_dropShadow_16_1366"/>
<feBlend mode="normal" in="SourceGraphic" in2="effect1_dropShadow_16_1366" result="shape"/>
</filter>
<filter id="filter3_d_16_1366" x="401.408" y="236.306" width="62.5142" height="55.7793" filterUnits="userSpaceOnUse" color-interpolation-filters="sRGB">
<feFlood flood-opacity="0" result="BackgroundImageFix"/>
<feColorMatrix in="SourceAlpha" type="matrix" values="0 0 0 0 0 0 0 0 0 0 0 0 0 0 0 0 0 0 127 0" result="hardAlpha"/>
<feOffset dy="6"/>
<feGaussianBlur stdDeviation="5"/>
<feColorMatrix type="matrix" values="0 0 0 0 0.863571 0 0 0 0 0.82875 0 0 0 0 0.975 0 0 0 0.4 0"/>
<feBlend mode="normal" in2="BackgroundImageFix" result="effect1_dropShadow_16_1366"/>
<feBlend mode="normal" in="SourceGraphic" in2="effect1_dropShadow_16_1366" result="shape"/>
</filter>
</defs>
</svg>
