<svg width="1440" height="552" viewBox="0 0 1440 552" fill="none" xmlns="http://www.w3.org/2000/svg">
<mask id="mask0_16_1311" style="mask-type:alpha" maskUnits="userSpaceOnUse" x="0" y="0" width="1440" height="552">
<rect width="1440" height="552" transform="matrix(1 0 0 -1 0 552)" fill="white"/>
</mask>
<g mask="url(#mask0_16_1311)">
<path d="M653.139 -1069.98C665.76 -1094.54 695.903 -1104.22 720.464 -1091.6L1998.45 -434.856C2023.01 -422.234 2032.69 -392.092 2020.06 -367.531L1546.48 554.031C1533.86 578.587 1503.92 588.368 1479.37 575.753C1365.5 517.268 1056.31 358.439 840.648 247.511C625.49 136.841 315.161 -22.5718 201.005 -81.2067C176.438 -93.8256 166.946 -123.875 179.569 -148.44L653.139 -1069.98Z" fill="#F9F7FF"/>
<path d="M-290.889 304.471C-278.267 279.91 -248.124 270.232 -223.563 282.855L1150.89 989.227C1175.45 1001.85 1185.13 1031.99 1172.5 1056.55L807.262 1767.24C794.641 1791.79 764.599 1801.52 740.04 1788.9C620.679 1727.58 286.051 1555.66 53.2228 1435.92C-179.06 1316.46 -514.924 1143.9 -634.587 1082.42C-659.153 1069.8 -668.747 1039.7 -656.123 1015.14L-290.889 304.471Z" fill="url(#paint0_linear_16_1311)"/>
</g>
<defs>
<linearGradient id="paint0_linear_16_1311" x1="885.5" y1="1347" x2="29.5" y2="368.5" gradientUnits="userSpaceOnUse">
<stop stop-color="#F5F2FD"/>
<stop offset="1" stop-color="#F5F2FD" stop-opacity="0"/>
<stop offset="1" stop-color="#F5F2FD" stop-opacity="0.096144"/>
</linearGradient>
</defs>
</svg>
